<?xml version="1.0" encoding="UTF-8"?>
<!DOCTYPE svg PUBLIC "-//W3C//DTD SVG 1.1//EN" "http://www.w3.org/Graphics/SVG/1.1/DTD/svg11.dtd">
<!-- Creator: CorelDRAW -->
<svg xmlns="http://www.w3.org/2000/svg" xml:space="preserve" width="185.629mm" height="114.167mm" version="1.1" style="shape-rendering:geometricPrecision; text-rendering:geometricPrecision; image-rendering:optimizeQuality; fill-rule:evenodd; clip-rule:evenodd"
viewBox="0 0 2464.43 1515.7"
 xmlns:xlink="http://www.w3.org/1999/xlink"
 xmlns:xodm="http://www.corel.com/coreldraw/odm/2003">
 <defs>
  <style type="text/css">
   <![CDATA[
    .fil8 {fill:#263238;fill-rule:nonzero}
    .fil9 {fill:#27835D;fill-rule:nonzero}
    .fil7 {fill:#455A64;fill-rule:nonzero}
    .fil1 {fill:#E0E0E0;fill-rule:nonzero}
    .fil14 {fill:#EB996E;fill-rule:nonzero}
    .fil5 {fill:#EBEBEB;fill-rule:nonzero}
    .fil6 {fill:whitesmoke;fill-rule:nonzero}
    .fil10 {fill:#FAFAFA;fill-rule:nonzero}
    .fil13 {fill:#FFBE9D;fill-rule:nonzero}
    .fil0 {fill:white;fill-rule:nonzero}
    .fil12 {fill:black;fill-rule:nonzero;fill-opacity:0.090196}
    .fil2 {fill:#E0E0E0;fill-rule:nonzero;fill-opacity:0.090196}
    .fil11 {fill:black;fill-rule:nonzero;fill-opacity:0.301961}
    .fil3 {fill:#E0E0E0;fill-rule:nonzero;fill-opacity:0.301961}
    .fil4 {fill:#EBEBEB;fill-rule:nonzero;fill-opacity:0.301961}
   ]]>
  </style>
 </defs>
 <g id="Layer_x0020_1">
  <metadata id="CorelCorpID_0Corel-Layer"/>
  <g id="_2761731671968">
   <g id="freepik--background-complete--inject-54">
    <rect class="fil0" x="0.6" y="175.42" width="534.97" height="358.18"/>
    <path class="fil1" d="M535.54 533.64c0,0 0,-2.25 0,-6.53 0,-4.29 0,-10.54 0,-18.9 0,-16.58 0,-40.89 -0.18,-72.04 0,-62.21 -0.25,-151.68 -0.42,-260.74l0.77 0.77 -534.91 0.21 0 -0 0.95 -0.98c0,127.61 0,248.98 0,358.29l-0.88 -0.88 385.41 0.42 110.09 0.25 29.3 0 7.55 0 2.6 0 -2.49 0 -7.45 0 -29.12 0 -109.91 0.21 -385.97 0.46 -0.88 -0 0 -0.88c0,-109.24 0,-230.6 0,-358.29l0 -0.95 1.02 0 534.91 0.21 0.77 -0 0 0.74c-0.18,109.28 -0.32,198.89 -0.39,261.24 0,31.05 -0.18,55.32 -0.21,71.87 0,8.18 0,14.47 0,18.76 0,4.29 -0.56,6.78 -0.56,6.78z"/>
    <path class="fil1" d="M0.6 207.39c0,-0.53 119.64,-0.95 267.24,-0.95 147.6,0 267.28,0.42 267.28,0.95 0,0.53 -119.64,0.98 -267.28,0.98 -147.64,0 -267.24,-0.42 -267.24,-0.98z"/>
    <g>
     <path class="fil2" d="M21.67 191.26c0,2.37 -1.92,4.29 -4.28,4.29 -2.37,0 -4.29,-1.92 -4.29,-4.29 0,-2.37 1.92,-4.29 4.29,-4.29 2.37,0 4.29,1.92 4.29,4.29l-0 0z"/>
    </g>
    <g>
     <path class="fil3" d="M36.39 191.26c0,2.37 -1.92,4.29 -4.28,4.29 -2.37,0 -4.29,-1.92 -4.29,-4.29 0,-2.37 1.92,-4.29 4.29,-4.29 2.37,0 4.29,1.92 4.29,4.29l-0 0z"/>
    </g>
    <g>
     <path class="fil3" d="M50.86 191.26c0,2.37 -1.92,4.29 -4.28,4.29 -2.37,0 -4.29,-1.92 -4.29,-4.29 0,-2.37 1.92,-4.29 4.29,-4.29 2.37,0 4.29,1.92 4.29,4.29l-0 0z"/>
    </g>
    <rect class="fil1" x="46.58" y="244.76" width="142.68" height="142.72"/>
    <path class="fil1" d="M462.19 285.08c0,0.53 -55.67,0.95 -124.31,0.95 -68.64,0 -124.31,-0.42 -124.31,-0.95 0,-0.53 55.67,-0.95 124.31,-0.95 68.64,0 124.31,0.42 124.31,0.95z"/>
    <path class="fil1" d="M462.19 311.6c0,0.53 -55.67,0.95 -124.31,0.95 -68.64,0 -124.31,-0.42 -124.31,-0.95 0,-0.53 55.67,-0.95 124.31,-0.95 68.64,0 124.31,0.42 124.31,0.95z"/>
    <path class="fil1" d="M462.19 338.13c0,0.53 -55.67,0.95 -124.31,0.95 -68.64,0 -124.31,-0.42 -124.31,-0.95 0,-0.53 55.67,-0.95 124.31,-0.95 68.64,0 124.31,0.42 124.31,0.95z"/>
    <path class="fil1" d="M360.5 364.65c-1.71,0.26 -3.44,0.39 -5.16,0.39 -0.2,0 -0.4,-0 -0.59,-0l-15.74 0.28c-13.31,0 -31.61,0.28 -51.95,0.28 -20.34,0 -38.64,0 -51.95,-0.28l-15.74 -0.28c-0.18,0 -0.38,0 -0.57,0 -1.75,0 -3.5,-0.13 -5.23,-0.39 1.72,-0.26 3.48,-0.39 5.23,-0.39 0.19,0 0.39,0 0.57,0l15.74 -0.28c13.28,-0.18 31.61,-0.28 51.95,-0.28 20.34,0 38.64,0 51.95,0.28l15.74 0.28c0.19,0 0.4,-0 0.59,-0 1.73,0 3.46,0.13 5.16,0.39l0 -0z"/>
    <rect class="fil1" x="55.5" y="435.57" width="67.06" height="67.06"/>
    <rect class="fil1" x="177.11" y="435.57" width="67.06" height="67.06"/>
    <rect class="fil1" x="298.75" y="435.57" width="67.06" height="67.06"/>
    <rect class="fil1" x="420.36" y="435.57" width="67.06" height="67.06"/>
    <rect class="fil0" x="614.5" y="1.37" width="460.82" height="187.19"/>
    <path class="fil1" d="M1075.32 188.56c0,0 0,-1.16 0,-3.51 0,-2.35 0,-5.48 0,-9.73 0,-8.54 0,-21.08 0,-37.23 0,-32.32 -0.18,-79.03 -0.28,-136.99l0.53 0.53 -460.82 0.21 0 0 0.7 -0.74c0,65.55 0,128.84 0,187.19l-0.67 -0.7 330.4 0.32 95.82 0.21 25.68 0 0 0 -25.5 0 -95.68 0.18 -330.85 0.35 -0.7 0 0 -0.7c0,-58.34 0,-121.64 0,-187.19l0 -0.74 0.74 0 460.82 0.25 0.49 0 0 0.98c0,57.99 -0.21,104.82 -0.28,137.2 0,16.09 0,28.63 0,37.13 0,4.22 0,7.41 0,9.63 0,2.21 -0.39,3.37 -0.39,3.37z"/>
    <path class="fil1" d="M614.96 26.63c0,-0.42 102.99,-0.74 230.01,-0.74 127.02,0 230.08,0.32 230.08,0.74 0,0.42 -102.99,0.74 -230.08,0.74 -127.09,0 -230.01,-0.35 -230.01,-0.74z"/>
    <g>
     <path class="fil4" d="M634.24 15.28c-0,1.84 -1.49,3.33 -3.34,3.33 -1.84,0 -3.34,-1.49 -3.34,-3.34 0,-1.78 1.39,-3.24 3.16,-3.33 0,0 0,0 0,0 1.87,0 3.41,1.47 3.51,3.34l-0 0z"/>
    </g>
    <g>
     <path class="fil4" d="M645.69 15.28c0,1.84 -1.49,3.34 -3.33,3.34 -1.84,0 -3.34,-1.49 -3.34,-3.34 0,-1.84 1.49,-3.34 3.34,-3.34 1.81,0.09 3.25,1.53 3.34,3.34l-0 0z"/>
    </g>
    <g>
     <path class="fil4" d="M657 15.31c0,-1.84 -1.49,-3.34 -3.34,-3.34 -1.84,0 -3.34,1.49 -3.34,3.34 0,1.84 1.49,3.34 3.34,3.34 1.84,0 3.34,-1.49 3.34,-3.34z"/>
    </g>
    <rect class="fil1" x="653.67" y="57.04" width="111.31" height="111.31"/>
    <path class="fil1" d="M1043.5 86.87c0,0.42 -57.29,0.74 -127.93,0.74 -70.64,0 -127.93,-0.32 -127.93,-0.74 0,-0.42 57.29,-0.74 127.93,-0.74 70.64,0 127.93,0.35 127.93,0.74z"/>
    <path class="fil1" d="M1043.5 109.56c0,0.39 -57.29,0.7 -127.93,0.7 -70.64,0 -127.93,-0.32 -127.93,-0.7 0,-0.39 57.29,-0.74 127.93,-0.74 70.64,0 127.93,0.32 127.93,0.74z"/>
    <path class="fil1" d="M952.17 132.22c-0.28,0.04 -0.56,0.06 -0.84,0.06 -0.28,0 -0.56,-0.02 -0.84,-0.06l-4.78 0 -17.56 0.25 -58.2 0.21 -58.28 0.07 -17.56 -0.25 -4.81 0c-0.28,0.04 -0.56,0.06 -0.84,0.06 -0.28,0 -0.56,-0.02 -0.84,-0.06 0.28,-0.03 0.56,-0.04 0.84,-0.04 0.28,0 0.56,0.01 0.84,0.04l4.81 0 17.56 -0.21 58.24 -0.25 58.2 0.25 17.56 0.21 4.78 0c0.56,-0.16 1.14,-0.25 1.72,-0.28l-0 0z"/>
    <path class="fil1" d="M2318.59 251.19c0.74,-1.09 1.62,-2.1 2.6,-2.99 2.07,-2.04 4.6,-4.6 7.59,-7.59 6.43,-6.39 15.42,-15.1 25.43,-24.59l0.25 -0.21 0 1.27c-10.08,-9.34 -19.14,-17.88 -25.61,-24.13l-7.62 -7.45c-0.98,-0.87 -1.87,-1.85 -2.64,-2.92 1.12,0.67 2.16,1.47 3.09,2.39l8.01 7.03c6.67,6.01 15.88,14.4 25.96,23.75l0.7 0.67 -0.7 0.63 -0.21 0.21c-10.01,9.55 -19.14,18.13 -25.82,24.24l-7.94 7.24c-0.95,0.91 -1.99,1.74 -3.09,2.46l0 0z"/>
    <path class="fil1" d="M2240.85 182.55c-0.76,1.07 -1.63,2.06 -2.6,2.95l-7.48 7.62c-6.43,6.36 -15.42,15.07 -25.43,24.59l-0.25 0.21 0 -1.3c10.08,9.38 19.14,17.91 25.61,24.17l7.62 7.45c0.99,0.86 1.88,1.84 2.64,2.92 -1.12,-0.69 -2.16,-1.5 -3.09,-2.42l-8.01 -7.03c-6.67,-6.01 -15.88,-14.4 -25.96,-23.78l-0.7 -0.63 0.7 -0.63 0.21 -0.25c10.01,-9.52 19.14,-18.09 25.82,-24.24l7.87 -7.17c0.92,-0.94 1.95,-1.77 3.06,-2.46l-0 0z"/>
    <path class="fil1" d="M2260.84 267.35c-0.46,-0.18 7.69,-23.11 18.23,-51.25 10.54,-28.14 19.42,-50.83 19.88,-50.65 0.46,0.18 -7.73,23.11 -18.23,51.25 -10.5,28.14 -19.42,50.83 -19.88,50.65z"/>
    <path class="fil1" d="M2407.07 316.45c0,0 0,-1.33 0,-3.83 0,-2.49 0,-6.25 0,-11.03 0,-9.7 0,-23.85 0,-41.84 0,-36 -0.21,-87.46 -0.39,-149.5l0.74 0.74 -252.91 0 0 0 0.88 -0.88c0,74.54 0,144.93 0,206.19l-0.77 -0.77 182.66 0.39 51.78 0.21 13.77 0 4.78 0 -1.16 0 -3.51 0 -13.59 0 -51.64 0.21 -183.25 0.39 -0.77 -0 0 -0.81c0,-61.26 0,-131.65 0,-206.19l0 -0.88 0.91 0 252.91 0 0.74 0 0 1.26c0,62.21 -0.28,113.84 -0.39,149.96 0,17.95 0,32 0,41.66 0,4.74 0,8.4 0,10.92 0,2.53 -0.77,3.79 -0.77,3.79z"/>
    <path class="fil1" d="M2409.07 140.86c0,0.49 -57.15,0.88 -127.61,0.88 -70.46,0 -127.58,-0.39 -127.58,-0.88 0,-0.49 57.12,-0.88 127.58,-0.88 70.46,0 127.61,0.39 127.61,0.88z"/>
    <path class="fil1" d="M2174.57 125.79c0,1.94 -1.57,3.51 -3.51,3.51 -1.94,0 -3.51,-1.57 -3.51,-3.51 0,-1.94 1.57,-3.51 3.51,-3.51 1.94,0 3.51,1.57 3.51,3.51l-0 0z"/>
    <path class="fil1" d="M2187.07 125.79c0,1.94 -1.57,3.51 -3.51,3.51 -1.94,0 -3.51,-1.57 -3.51,-3.51 0,-1.94 1.57,-3.51 3.51,-3.51 1.94,0 3.51,1.57 3.51,3.51z"/>
    <path class="fil1" d="M2199.47 125.79c0,1.94 -1.57,3.51 -3.51,3.51 -1.94,0 -3.51,-1.57 -3.51,-3.51 0,-1.94 1.57,-3.51 3.51,-3.51 1.94,0 3.51,1.57 3.51,3.51z"/>
    <path class="fil5" d="M2348.76 1223.27c14.61,-7.55 31.86,-8.54 48.09,-5.83 8.71,1.44 17.81,4.04 23.75,10.54 5.94,6.5 7.03,18.06 0.25,23.71 -3.79,2.53 -8.25,3.89 -12.81,3.89 -0.72,0 -1.44,-0.04 -2.15,-0.1 -12.72,0 -26.84,-2.39 -36.99,5.27 -5.8,4.36 -9.63,11.59 -16.58,13.73 -1.21,0.28 -2.46,0.42 -3.7,0.42 -5.95,0 -11.43,-3.23 -14.32,-8.43 -2.05,-3.98 -3.13,-8.41 -3.13,-12.89 0,-2.62 0.37,-5.24 1.09,-7.76 1.7,-9.67 7.8,-18.01 16.51,-22.55l0 0z"/>
    <g>
     <path class="fil5" d="M2315.25 1158.61c8.96,12.75 26.35,8.54 34.39,0.74 8.04,-7.8 11.45,-19.11 14.58,-29.86 7.03,-24.59 14.05,-50.44 8.96,-75.52 -1.28,-7.6 -4.63,-14.72 -9.66,-20.55 -4.15,-4.74 -10.15,-7.46 -16.45,-7.46 -1.45,0 -2.89,0.14 -4.31,0.43 -8.78,2.32 -14.05,10.89 -18.16,19.04 -11.58,24.09 -17.69,50.53 -17.78,77.29 0,12.43 1.4,25.47 8.43,35.76l0 0.14zm0 0l0 0 0 0z"/>
    </g>
    <g>
     <path class="fil5" d="M2290.69 1176.91c9.7,-11.52 11.56,-28.31 7.24,-42.75 -4.9,-14.34 -13.68,-27.06 -25.33,-36.74 -13.22,-11.76 -28.66,-20.88 -45.35,-26.76 -5.79,-2.35 -12.01,-3.56 -18.27,-3.56 -0.71,0 -1.43,0.02 -2.13,0.05 -7.11,0.45 -13.53,4.4 -17.14,10.54 -4.74,9.1 0,20.16 4.78,29.15 8.72,15.83 18.72,31.07 29.78,45.38 8.92,11.49 19.14,22.87 32.77,28.1 13.63,5.23 27.75,4.6 34.95,-4.85l-1.29 1.45zm0 0l0 0 0 0z"/>
    </g>
    <path class="fil1" d="M2314.65 1351.27c0.46,-1.91 0.74,-3.87 0.81,-5.83 0.42,-4.22 0.91,-9.52 1.55,-15.84 0.63,-6.32 1.72,-14.58 3.51,-23.22 2.07,-9.33 4.94,-18.54 8.47,-27.43 3.48,-8.89 8.22,-17.24 14.04,-24.79 4.7,-6.14 10.71,-11.17 17.57,-14.72 4.69,-2.32 9.74,-3.89 14.93,-4.64 1.94,-0.07 3.88,-0.36 5.76,-0.84 -0.97,-0.09 -1.96,-0.14 -2.94,-0.14 -0.98,0 -1.96,0.05 -2.93,0.14 -5.38,0.39 -10.67,1.77 -15.56,4.04 -7.27,3.43 -13.66,8.52 -18.65,14.82 -6.06,7.66 -10.98,16.21 -14.54,25.32 -3.59,9.01 -6.38,18.37 -8.36,27.87 -1.49,7.76 -2.55,15.63 -3.1,23.52 -0.49,6.74 -0.7,12.19 -0.81,15.95 -0.03,0.6 -0.05,1.19 -0.05,1.78 0,1.34 0.1,2.7 0.31,4.02l-0 0z"/>
    <path class="fil1" d="M2315.74 1339.09c0.05,-0.45 0.08,-0.9 0.08,-1.35 0,-0.45 -0.03,-0.91 -0.08,-1.35l0 -7.69c0,-6.71 0,-16.37 0.35,-28.31 0.56,-23.89 2.63,-49.6 6.6,-85.81 3.76,-34.07 8.82,-73.77 14.05,-99.55 1.12,-5.87 2.28,-11.13 3.51,-15.74 1.23,-4.6 1.9,-8.64 2.74,-11.87 0.84,-3.23 1.33,-5.51 1.83,-7.48 0.26,-0.87 0.41,-1.77 0.46,-2.67 -0.39,0.81 -0.71,1.66 -0.95,2.53 -0.56,1.92 -1.3,4.38 -2.21,7.38 -0.98,3.23 -2,7.03 -3.16,11.8 -1.16,4.78 -2.49,9.87 -3.76,15.7 -6.53,30.4 -11.66,61.37 -14.86,92.35 -3.97,36.32 -5.76,69.41 -5.94,93.33 0,11.98 0,21.67 0.42,28.35 0.21,3.13 0.35,5.69 0.49,7.69 0.05,0.91 0.19,1.82 0.42,2.71l-0 0z"/>
    <path class="fil1" d="M2315.92 1275.3c0.08,-1.33 0.13,-2.69 0.13,-4.02 0,-1.34 -0.05,-2.69 -0.13,-4.02 -0.28,-5.16 -1.02,-12.65 -2.46,-21.78 -1.75,-10.62 -4.1,-21.24 -7.01,-31.61 -3.43,-12.82 -7.94,-25.45 -13.3,-37.6 -9.2,-22.4 -22.45,-43.01 -38.99,-60.73 -2.85,-3 -5.94,-5.88 -9.16,-8.5 -1.4,-1.19 -2.67,-2.39 -3.93,-3.34l-3.51 -2.46c-2.14,-1.61 -4.41,-3.06 -6.78,-4.31 7.76,6.13 15.21,12.78 22.19,19.82 16.01,17.82 28.9,38.34 38.02,60.48 5.25,12.09 9.76,24.58 13.36,37.24 2.92,10.27 5.38,20.79 7.22,31.3 1.69,9.06 2.63,16.44 3.23,21.57 0.14,2.67 0.53,5.34 1.12,7.96l-0 0z"/>
    <polygon class="fil1" points="2254.27,1387.81 2260.66,1475.34 2373.14,1475.34 2379.53,1387.81 "/>
    <rect class="fil1" x="2243.38" y="1353.28" width="149.53" height="34.49"/>
    <polygon class="fil5" points="2243.38,1472 2243.38,1481.56 2250.4,1481.56 2390.45,1481.56 2390.45,1472 "/>
    <polygon class="fil1" points="2257.29,1498.42 2250.4,1481.56 2385.11,1481.56 2377.07,1498.42 "/>
    <path class="fil6" d="M2377.42 1416.4c0,0 0,0.32 -0.53,0.81l-1.69 2.25 -6.53 8.36 -0.28 0.39 -0.32 -0.39c-4.11,-5.69 -9.59,-13.31 -16.09,-22.27l0.95 0 -15.88 22.45 -0.49 0.7 -0.56 -0.67 -18.79 -22.34 1.09 0 -1.02 1.3 -16.83 21.08 -0.56 0.7 -0.49 -0.74c-5.73,-8.08 -11.06,-15.6 -15.88,-22.45l0.91 0 -19.49 22.23 -0.35 0.39 -0.28 -0.42 -6.11 -10.29 -1.58 -2.74c-0.19,-0.3 -0.34,-0.62 -0.46,-0.95 -0.12,-0.33 0.25,0.25 0.63,0.84l1.76 2.63 6.43 10.08 -0.63 0 19.21 -22.52 0.49 -0.56 0.42 0.6 16.02 22.34 -1.09 -0 16.79 -21.08 1.02 -1.3 0.53 -0.67 0.56 0.67 18.72 22.41 -0.88 0 16.02 -22.34 0.49 -0.63 0.46 0.63 15.74 22.52 -0.56 0 6.81 -8.18 1.83 -2.11c0.14,-0.26 0.3,-0.51 0.49,-0.74l0 0z"/>
    <path class="fil6" d="M2381.07 1387.21c0,0.39 -28.1,0.7 -62.95,0.7 -34.84,0 -62.95,-0.32 -62.95,-0.7 0,-0.39 28.1,-0.7 62.95,-0.7 34.84,0 62.95,0.32 62.95,0.7z"/>
    <path class="fil6" d="M2386.76 1482.51c0,0.39 -30.63,0.7 -68.39,0.7 -37.76,0 -68.43,-0.32 -68.43,-0.7 0,-0.39 30.63,-0.7 68.43,-0.7 37.8,0 68.39,0.32 68.39,0.7z"/>
   </g>
   <g id="freepik--Device--inject-54">
    <path class="fil7" d="M299.31 261.48l1794.46 0c13.07,0 23.68,10.6 23.68,23.68l0 1145.72c0,28.26 -22.92,51.18 -51.18,51.18l-1742.86 0c-0.05,-0 -0.1,-0 -0.14,-0 -28.26,0 -51.18,-22.92 -51.18,-51.18 0,0 0,0 0,0l0 -1142.13c0,-0.01 0,-0.03 0,-0.03 0,-15.03 12.19,-27.22 27.22,-27.22 0,0 0,0 0,0l-0 -0z"/>
    <path class="fil7" d="M194.92 1391.64l1999.43 0 0 58.56c0,26.61 -21.58,48.19 -48.19,48.19l-1903.04 0c-26.61,-0 -48.19,-21.58 -48.19,-48.19l0 -58.55z"/>
    <rect class="fil1" x="321.62" y="309.99" width="1741.21" height="1030.61"/>
    <polygon class="fil8" points="1012.9,1391.64 1037.7,1431.08 1386.82,1431.08 1409.87,1391.64 "/>
    <rect class="fil8" x="373.29" y="369.7" width="1642.09" height="970.89"/>
    <path class="fil1" d="M499.29 1312.07c-0.84,0 -1.55,-206.75 -1.55,-461.77 0,-255.02 0.7,-461.88 1.55,-461.88 0.84,0 1.55,206.75 1.55,461.88 0,255.12 -0.7,461.77 -1.55,461.77z"/>
    <path class="fil1" d="M466.16 472.17c0,0.84 -11.94,1.55 -26.66,1.55 -14.72,0 -26.7,-0.7 -26.7,-1.55 0,-0.84 11.94,-1.55 26.7,-1.55 14.75,0 26.66,0.7 26.66,1.55z"/>
    <path class="fil1" d="M468.2 419.76c0,0.84 -11.94,1.55 -26.66,1.55 -14.72,0 -26.66,-0.7 -26.66,-1.55 0,-0.84 11.94,-1.55 26.66,-1.55 14.72,0 26.66,0.7 26.66,1.55z"/>
    <path class="fil1" d="M466.16 528.65c0,0.84 -11.94,1.55 -26.66,1.55 -14.72,0 -26.7,-0.7 -26.7,-1.55 0,-0.84 11.94,-1.55 26.7,-1.55 14.75,0 26.66,0.7 26.66,1.55z"/>
    <path class="fil1" d="M466.16 585.14c0,0.88 -11.94,1.55 -26.66,1.55 -14.72,0 -26.7,-0.67 -26.7,-1.55 0,-0.88 11.94,-1.51 26.7,-1.51 14.75,0 26.66,0.7 26.66,1.51z"/>
    <path class="fil1" d="M466.16 641.65c0,0.84 -11.94,1.55 -26.66,1.55 -14.72,0 -26.7,-0.7 -26.7,-1.55 0,-0.84 11.94,-1.55 26.7,-1.55 14.75,0 26.66,0.67 26.66,1.55z"/>
    <path class="fil1" d="M466.16 698.14c0,0.84 -11.94,1.55 -26.66,1.55 -14.72,0 -26.7,-0.7 -26.7,-1.55 0,-0.84 11.94,-1.55 26.7,-1.55 14.75,0 26.66,0.7 26.66,1.55z"/>
    <path class="fil1" d="M466.16 754.62c0,0.84 -11.94,1.55 -26.66,1.55 -14.72,0 -26.7,-0.7 -26.7,-1.55 0,-0.84 11.94,-1.55 26.7,-1.55 14.75,0 26.66,0.7 26.66,1.55z"/>
    <path class="fil1" d="M466.16 811.1c0,0.88 -11.94,1.55 -26.66,1.55 -14.72,0 -26.7,-0.67 -26.7,-1.55 0,-0.88 11.94,-1.51 26.7,-1.51 14.75,0 26.66,0.67 26.66,1.51z"/>
    <path class="fil1" d="M466.16 867.62c0,0.84 -11.94,1.51 -26.66,1.51 -14.72,0 -26.7,-0.67 -26.7,-1.51 0,-0.84 11.94,-1.55 26.7,-1.55 14.75,0 26.66,0.67 26.66,1.55z"/>
    <path class="fil1" d="M466.16 924.1c0,0.84 -11.94,1.55 -26.66,1.55 -14.72,0 -26.7,-0.7 -26.7,-1.55 0,-0.84 11.94,-1.55 26.7,-1.55 14.75,0 26.66,0.7 26.66,1.55z"/>
    <path class="fil1" d="M466.16 980.59c0,0.84 -11.94,1.55 -26.66,1.55 -14.72,0 -26.7,-0.7 -26.7,-1.55 0,-0.84 11.94,-1.55 26.7,-1.55 14.75,0 26.66,0.7 26.66,1.55z"/>
    <path class="fil1" d="M466.16 1037.07c0,0.88 -11.94,1.55 -26.66,1.55 -14.72,0 -26.7,-0.67 -26.7,-1.55 0,-0.88 11.94,-1.51 26.7,-1.51 14.75,0 26.66,0.67 26.66,1.51z"/>
    <path class="fil1" d="M466.16 1093.66c0,0.84 -11.94,1.51 -26.66,1.51 -14.72,0 -26.7,-0.67 -26.7,-1.51 0,-0.84 11.94,-1.55 26.7,-1.55 14.75,0 26.66,0.6 26.66,1.55z"/>
    <path class="fil1" d="M466.16 1150.07c0,0.84 -11.94,1.55 -26.66,1.55 -14.72,0 -26.7,-0.7 -26.7,-1.55 0,-0.84 11.94,-1.55 26.7,-1.55 14.75,0 26.66,0.7 26.66,1.55z"/>
    <path class="fil1" d="M466.16 1206.55c0,0.84 -11.94,1.55 -26.66,1.55 -14.72,0 -26.7,-0.7 -26.7,-1.55 0,-0.84 11.94,-1.55 26.7,-1.55 14.75,0 26.66,0.7 26.66,1.55z"/>
    <path class="fil1" d="M466.16 1263.04c0,0.88 -11.94,1.55 -26.66,1.55 -14.72,0 -26.7,-0.67 -26.7,-1.55 0,-0.88 11.94,-1.55 26.7,-1.55 14.75,0 26.66,0.77 26.66,1.55z"/>
    <path class="fil9" d="M679.98 468.83c0,0.84 -30.98,1.55 -69.2,1.55 -38.22,0 -69.23,-0.7 -69.23,-1.55 0,-0.84 30.98,-1.55 69.23,-1.55 38.25,0 69.2,0.7 69.2,1.55z"/>
    <path class="fil9" d="M679.98 1263.04c0,0.88 -30.98,1.55 -69.2,1.55 -38.22,0 -69.23,-0.67 -69.23,-1.55 0,-0.88 30.98,-1.55 69.23,-1.55 38.25,0 69.2,0.77 69.2,1.55z"/>
    <path class="fil9" d="M872.78 585.14c0,0.88 -57.99,1.55 -129.51,1.55 -71.52,0 -129.51,-0.67 -129.51,-1.55 0,-0.88 57.96,-1.51 129.51,-1.51 71.55,0 129.51,0.7 129.51,1.51z"/>
    <path class="fil1" d="M1172.34 585.14c0,0.88 -57.99,1.55 -129.51,1.55 -71.52,0 -129.55,-0.67 -129.55,-1.55 0,-0.88 57.99,-1.51 129.55,-1.51 71.55,0 129.51,0.7 129.51,1.51z"/>
    <path class="fil1" d="M1057.86 641.65c0,0.84 -85.46,1.55 -190.88,1.55 -105.41,0 -190.88,-0.7 -190.88,-1.55 0,-0.84 85.43,-1.55 190.88,-1.55 105.45,0 190.88,0.67 190.88,1.55z"/>
    <path class="fil1" d="M1057.86 698.14c0,0.84 -85.46,1.55 -190.88,1.55 -105.41,0 -190.88,-0.7 -190.88,-1.55 0,-0.84 85.43,-1.55 190.88,-1.55 105.45,0 190.88,0.7 190.88,1.55z"/>
    <path class="fil1" d="M1320.65 867.62c0,0.84 -85.5,1.51 -190.88,1.51 -105.38,0 -190.91,-0.67 -190.91,-1.51 0,-0.84 85.46,-1.55 190.91,-1.55 105.45,0 190.88,0.67 190.88,1.55z"/>
    <path class="fil1" d="M1207.22 754.62c0,0.84 -85.46,1.55 -190.84,1.55 -105.38,0 -190.91,-0.7 -190.91,-1.55 0,-0.84 85.46,-1.55 190.91,-1.55 105.45,0 190.84,0.7 190.84,1.55z"/>
    <path class="fil1" d="M1673.74 754.62c0,0.84 -85.46,1.55 -190.84,1.55 -105.38,0 -190.91,-0.7 -190.91,-1.55 0,-0.84 85.46,-1.55 190.91,-1.55 105.45,0 190.84,0.7 190.84,1.55z"/>
    <path class="fil10" d="M1511.52 641.65c0,0.84 -85.5,1.55 -190.88,1.55 -105.38,0 -190.88,-0.7 -190.88,-1.55 0,-0.84 85.43,-1.55 190.88,-1.55 105.45,0 190.88,0.67 190.88,1.55z"/>
    <path class="fil10" d="M1775.22 867.62c0,0.84 -85.46,1.51 -190.88,1.51 -105.41,0 -190.88,-0.67 -190.88,-1.51 0,-0.84 85.43,-1.55 190.88,-1.55 105.45,0 190.88,0.67 190.88,1.55z"/>
    <path class="fil7" d="M1722.56 698.14c0,0.84 -132.71,1.55 -296.4,1.55 -163.69,0 -296.4,-0.7 -296.4,-1.55 0,-0.84 132.67,-1.55 296.4,-1.55 163.72,0 296.4,0.7 296.4,1.55z"/>
    <path class="fil10" d="M679.98 528.65c0,0.84 -30.98,1.55 -69.2,1.55 -38.22,0 -69.23,-0.7 -69.23,-1.55 0,-0.84 30.98,-1.55 69.23,-1.55 38.25,0 69.2,0.7 69.2,1.55z"/>
    <path class="fil10" d="M679.98 1206.55c0,0.84 -30.98,1.55 -69.2,1.55 -38.22,0 -69.23,-0.7 -69.23,-1.55 0,-0.84 30.98,-1.55 69.23,-1.55 38.25,0 69.2,0.7 69.2,1.55z"/>
    <path class="fil10" d="M748.44 754.62c0,0.84 -30.98,1.55 -69.23,1.55 -38.25,0 -69.23,-0.7 -69.23,-1.55 0,-0.84 31.02,-1.55 69.23,-1.55 38.22,0 69.23,0.7 69.23,1.55z"/>
    <path class="fil9" d="M1858.18 754.62c0,0.84 -30.98,1.55 -69.2,1.55 -38.22,0 -69.23,-0.7 -69.23,-1.55 0,-0.84 30.98,-1.55 69.23,-1.55 38.25,0 69.2,0.7 69.2,1.55z"/>
    <path class="fil9" d="M872.78 980.27c0,0.84 -57.99,1.55 -129.51,1.55 -71.52,0 -129.51,-0.7 -129.51,-1.55 0,-0.84 57.96,-1.55 129.51,-1.55 71.55,0 129.51,0.67 129.51,1.55z"/>
    <path class="fil1" d="M1172.34 980.27c0,0.84 -57.99,1.55 -129.51,1.55 -71.52,0 -129.55,-0.7 -129.55,-1.55 0,-0.84 57.99,-1.55 129.55,-1.55 71.55,0 129.51,0.67 129.51,1.55z"/>
    <path class="fil1" d="M1057.86 1036.75c0,0.84 -85.46,1.55 -190.88,1.55 -105.41,0 -190.88,-0.7 -190.88,-1.55 0,-0.84 85.43,-1.55 190.88,-1.55 105.45,0 190.88,0.7 190.88,1.55z"/>
    <path class="fil1" d="M1057.86 1093.24c0,0.84 -85.46,1.55 -190.88,1.55 -105.41,0 -190.88,-0.7 -190.88,-1.55 0,-0.84 85.43,-1.55 190.88,-1.55 105.45,0 190.88,0.7 190.88,1.55z"/>
    <path class="fil1" d="M1207.22 1149.86c0,0.88 -85.46,1.55 -190.84,1.55 -105.38,0 -190.91,-0.67 -190.91,-1.55 0,-0.88 85.46,-1.51 190.91,-1.51 105.45,0 190.84,0.53 190.84,1.51z"/>
    <path class="fil1" d="M1673.74 1149.86c0,0.88 -85.46,1.55 -190.84,1.55 -105.38,0 -190.91,-0.67 -190.91,-1.55 0,-0.88 85.46,-1.51 190.91,-1.51 105.45,0 190.84,0.53 190.84,1.51z"/>
    <path class="fil10" d="M1511.52 1036.75c0,0.84 -85.5,1.55 -190.88,1.55 -105.38,0 -190.88,-0.7 -190.88,-1.55 0,-0.84 85.43,-1.55 190.88,-1.55 105.45,0 190.88,0.7 190.88,1.55z"/>
    <path class="fil7" d="M1722.56 1093.24c0,0.84 -132.71,1.55 -296.4,1.55 -163.69,0 -296.4,-0.7 -296.4,-1.55 0,-0.84 132.67,-1.55 296.4,-1.55 163.72,0 296.4,0.7 296.4,1.55z"/>
    <path class="fil10" d="M748.44 1149.86c0,0.88 -30.98,1.55 -69.23,1.55 -38.25,0 -69.23,-0.67 -69.23,-1.55 0,-0.88 31.02,-1.51 69.23,-1.51 38.22,0 69.23,0.53 69.23,1.51z"/>
    <path class="fil9" d="M1858.18 1149.86c0,0.88 -30.98,1.55 -69.2,1.55 -38.22,0 -69.23,-0.67 -69.23,-1.55 0,-0.88 30.98,-1.51 69.23,-1.51 38.25,0 69.2,0.53 69.2,1.51z"/>
    <path class="fil8" d="M1895.1 1427.36c0,0.49 -353.51,0.91 -789.5,0.91 -435.99,0 -789.57,-0.49 -789.57,-0.91 0,-0.42 353.44,-0.91 789.57,-0.91 436.13,0 789.5,0.35 789.5,0.91z"/>
   </g>
   <g id="freepik--Plant--inject-54">
    <g>
     <path class="fil9" d="M256.92 1117.65c-37.55,-37.59 -88.6,-58.73 -141.75,-58.73 -16.69,0 -33.38,2.1 -49.53,6.22 57.08,38.86 124.52,59.99 193.57,60.46l-2.3 -7.95zm0 0l0 0 0 0z"/>
    </g>
    <path class="fil9" d="M192.04 887.92c7.97,-56.38 -14.05,-119.78 -56.2,-160.74 -1.37,55.85 22.2,118.69 56.2,160.74z"/>
    <g>
     <path class="fil9" d="M225.79 994.39c-30.44,-57.85 -79.07,-104.31 -138.23,-132.11 18.84,66.06 71.95,116.85 138.76,132.71l-0.53 -0.6zm0 0l0 0 0 0z"/>
    </g>
    <g>
     <path class="fil9" d="M232.78 1014.9c-34.04,0.98 -68.5,-0.21 -101.41,-8.92 -32.91,-8.71 -64.39,-25.47 -86.38,-51.53 66.66,0.16 131.85,20.1 187.27,57.16l0.51 3.29zm0 0l0 0 0 0z"/>
    </g>
    <g>
     <path class="fil9" d="M215.5 947.25c17.28,-64.77 45.66,-109.56 96.7,-145.84 0.66,5.41 1,10.91 1,16.37 0,60.13 -39.89,112.99 -97.7,129.48l0 -0zm0 0l0 0 0 0z"/>
    </g>
    <g>
     <path class="fil9" d="M343.99 1058.95c0,-0.21 0,-0.44 0,-0.65 0,-38.4 -22.92,-73.09 -58.24,-88.15 2.85,33.44 29.12,72.11 58.24,88.8l-0.01 0zm0 0l0 0 0 0z"/>
    </g>
    <g>
     <path class="fil9" d="M360.26 1004.33c4.83,-55.33 41.36,-102.89 93.57,-121.85 -11.77,54.13 -43.03,99.2 -93.58,121.85l0 0zm0 0l0 0 0 0z"/>
    </g>
    <g>
     <path class="fil9" d="M335.74 1101.25c12.01,-17.18 31.61,-27.85 51.88,-33.16 20.27,-5.31 41.45,-5.8 62.38,-6.22 -27.6,29.96 -66.53,47.02 -107.28,47.02 -1.75,0 -3.54,-0.04 -5.27,-0.09l-1.72 -7.56zm0 0l0 0 0 0z"/>
    </g>
    <path class="fil9" d="M311.43 1239.26c15.24,-4.71 31.16,-7.11 47.12,-7.11 64.99,0 123.55,39.4 148.04,99.59 -70.78,-13.28 -140.86,-44.89 -195.16,-92.49z"/>
    <g>
     <path class="fil9" d="M233.63 1191.31c11.77,34.81 9.48,76.89 -16.69,106.89 -3.35,-11.57 -5.07,-23.57 -5.07,-35.61 0,-25.39 7.59,-50.23 21.76,-71.28l-0 0.01zm0 0l0 0 0 0z"/>
    </g>
    <g>
     <path class="fil9" d="M187.61 1171.95c-3.85,45.62 -31.3,85.96 -72.32,106.3 -1.32,0.84 -2.86,1.29 -4.43,1.29 -0.66,0 -1.32,-0.08 -1.97,-0.24 -3.2,-1.3 -3.51,-5.66 -3.09,-9.1 5.13,-44.58 38.18,-87.82 81.81,-98.35l-0 0.11zm0 0l0 0 0 0z"/>
    </g>
    <g>
     <path class="fil9" d="M157.58 1167.42c-20.33,21.95 -48.91,34.45 -78.83,34.45 -29.53,0 -57.81,-12.2 -78.08,-33.65 49.88,-5.44 107.42,-9.1 156.91,-0.81l0 0.01zm0 0l0 0 0 0z"/>
    </g>
    <path class="fil8" d="M150.1 768.7c0,0 0,0.53 0.46,1.47l1.55 4.22c1.4,3.79 3.51,9.2 6.01,16.16 2.49,6.96 5.8,15.6 9.38,25.61l5.76 16.02 6.15 18.02c8.85,25.26 18.65,55.57 29.26,89.33 10.61,33.76 21.32,71.13 32.07,110.54 10.75,39.41 19.99,77.28 28.1,111.63 8.11,34.35 14.47,65.65 19.28,92 1.24,6.58 2.41,12.83 3.51,18.76 1.1,5.92 2.05,11.51 2.85,16.75 1.79,10.54 3.34,19.49 4.39,26.91 1.05,7.41 2,13.03 2.6,17.04 0.33,1.85 0.57,3.33 0.74,4.43 0.07,0.51 0.17,1.02 0.32,1.51 0.02,-0.25 0.04,-0.52 0.04,-0.77 0,-0.26 -0.01,-0.52 -0.04,-0.77 0,-1.09 -0.32,-2.56 -0.56,-4.43 -0.53,-4 -1.27,-9.76 -2.25,-17.11 -0.98,-7.34 -2.35,-16.47 -4.07,-26.98 -0.84,-5.23 -1.76,-10.85 -2.7,-16.79 -0.95,-5.94 -2.21,-12.22 -3.51,-18.79 -4.67,-26.38 -11.21,-57.57 -18.9,-92.14 -7.69,-34.56 -17.35,-72.29 -27.89,-111.77 -10.54,-39.48 -21.71,-76.72 -32.21,-110.44 -10.5,-33.72 -20.65,-64.04 -29.65,-89.22 -2.34,-6.32 -4.46,-12.33 -6.36,-18.02l-5.94 -15.98c-3.51,-9.98 -7.03,-18.55 -9.66,-25.5 -2.63,-6.96 -4.88,-12.26 -6.36,-16.02 -0.74,-1.76 -1.3,-3.13 -1.69,-4.14 -0.18,-0.52 -0.4,-1.03 -0.67,-1.51l-0 0z"/>
    <path class="fil8" d="M424.08 911.39c0,0 -0.32,0.25 -0.88,0.81l-2.39 2.49c-2.07,2.21 -5.09,5.55 -8.85,9.94 -10.68,12.3 -20.56,25.39 -29.39,39.07 -13.21,20.35 -23.57,42.52 -30.69,65.72 -8.26,26.13 -13.35,55.85 -18.44,86.94 -10.12,62.17 -22.59,117.88 -31.61,158.07 -4.53,20.06 -8.22,36.32 -10.82,47.7 -1.23,5.51 -2.18,9.87 -2.85,12.96 -0.32,1.4 -0.53,2.53 -0.7,3.51 -0.02,0.18 -0.03,0.37 -0.03,0.57 0,0.19 0.02,0.39 0.05,0.58 0.03,0.19 0,-0.39 0.35,-1.12 0.35,-0.74 0.53,-1.97 0.88,-3.34l3.23 -12.89c2.7,-11.38 6.6,-27.57 11.38,-47.6 9.34,-40.22 22.02,-95.89 32.18,-158.07 5.09,-31.09 10.12,-60.73 18.19,-86.76 7.02,-23.05 17.21,-45.15 30.16,-65.47 8.7,-13.67 18.47,-26.94 28.84,-39.41 3.51,-4.43 6.6,-7.83 8.57,-10.12l2.25 -2.63 0.58 -0.95z"/>
    <path class="fil8" d="M142.68 1165.32c0.58,0.19 1.18,0.3 1.79,0.31l5.16 0.6 3.72 0.35 4.43 0.67c3.16,0.46 6.78,0.95 10.54,1.79l6.22 1.27 6.64 1.65c4.6,1.05 9.38,2.74 14.47,4.29 10.89,3.81 21.49,8.55 31.62,14.04 10.04,5.62 19.55,12.25 28.31,19.68 3.79,3.3 7.43,6.83 10.84,10.53 3.05,3.12 5.93,6.47 8.6,9.91 2.27,2.82 4.41,5.76 6.37,8.79 1.6,2.23 3.07,4.59 4.35,7.02l2.63 4.46c0.63,1.02 0.98,1.55 1.05,1.51 -0.14,-0.58 -0.38,-1.14 -0.7,-1.65l-2.35 -4.67c-1.19,-2.44 -2.57,-4.8 -4.11,-7.03 -1.87,-3.1 -3.95,-6.12 -6.18,-8.99 -2.6,-3.58 -5.46,-6.99 -8.5,-10.19 -3.42,-3.69 -7.08,-7.23 -10.86,-10.54 -8.75,-7.8 -18.31,-14.75 -28.46,-20.62 -10.18,-5.58 -20.97,-10.31 -31.96,-14.04 -5.13,-1.47 -9.94,-3.13 -14.61,-4.11l-6.71 -1.58 -6.14 -1.03c-3.97,-0.81 -7.62,-1.19 -10.82,-1.55l-4.43 -0.53 -3.76 -0.18 -5.2 -0.21c-0.28,-0.04 -0.57,-0.06 -0.86,-0.06 -0.37,0 -0.74,0.03 -1.1,0.09l-0 0z"/>
    <path class="fil8" d="M128.46 912.58c1.05,1.29 2.23,2.47 3.51,3.51l10.36 8.96c8.71,7.45 20.86,17.56 34.32,28.84 13.45,11.28 25.78,21.08 34.71,28.38l10.54 8.46c1.27,1.08 2.64,2.04 4.08,2.88 -1.05,-1.28 -2.23,-2.46 -3.51,-3.51l-10.26 -8.85c-8.71,-7.45 -20.83,-17.56 -34.32,-28.8 -13.49,-11.24 -25.75,-21.08 -34.67,-28.38l-10.54 -8.46c-1.29,-1.16 -2.71,-2.17 -4.21,-3.02l-0 0z"/>
    <path class="fil8" d="M116.16 978.55c0,0.53 26.06,8.68 58.49,18.27 32.42,9.59 58.91,16.97 59.05,16.47 0.14,-0.49 -26.03,-8.71 -58.49,-18.3 -32.46,-9.59 -58.84,-16.93 -59.05,-16.44z"/>
    <path class="fil8" d="M212.9 952.27c1.04,-1.14 1.95,-2.41 2.71,-3.76l7.03 -10.54c5.83,-8.85 14.05,-21.08 23.99,-33.83 9.94,-12.75 19.32,-24.06 26.27,-32.07l8.29 -9.45c1.1,-1.06 2.08,-2.24 2.91,-3.51 -1.28,0.89 -2.46,1.94 -3.51,3.09 -2.14,2.11 -5.13,5.2 -8.75,9.1 -7.27,7.76 -16.93,18.9 -26.8,31.79 -9.87,12.89 -18.06,25.19 -23.64,34.25 -2.77,4.53 -4.95,8.26 -6.39,10.85 -0.82,1.29 -1.53,2.65 -2.11,4.07l-0 0z"/>
    <path class="fil8" d="M303.84 988.91c1.83,3.49 3.89,6.89 6.14,10.12 3.93,6.15 9.24,14.68 14.72,24.34 5.48,9.66 10.15,18.58 13.42,25.12 1.61,3.62 3.49,7.16 5.55,10.53 -1.06,-3.79 -2.52,-7.51 -4.32,-11.03 -2.99,-6.67 -7.45,-15.74 -13,-25.47 -5.55,-9.73 -11.03,-18.19 -15.24,-24.17 -2.11,-3.36 -4.56,-6.54 -7.28,-9.45l0 0z"/>
    <path class="fil8" d="M334.97 1103.04c0,0.25 5.13,-2.18 13.31,-5.87 8.18,-3.69 19.6,-8.5 32.49,-13 12.89,-4.5 24.83,-7.9 33.55,-10.12 8.71,-2.21 14.05,-3.51 14.05,-3.69 -0.19,-0.01 -0.38,-0.01 -0.58,-0.01 -1.12,0 -2.24,0.13 -3.32,0.4 -2.49,0.39 -6.08,1.05 -10.54,2 -22.9,4.99 -45.23,12.84 -66.28,23.17 -4.04,2 -7.27,3.72 -9.45,4.99 -1.17,0.57 -2.25,1.29 -3.24,2.12l-0 0z"/>
    <path class="fil8" d="M310.48 1239.47c0,0 0.53,0.28 1.62,0.56l4.71 1.19 17.56 4.04c19.17,3.99 38.31,9.07 56.9,14.99 18.55,6.17 36.42,14.63 53.05,24.96 6.36,4.04 11.31,7.62 14.65,10.19 1.66,1.38 3.44,2.7 5.26,3.89 1.82,1.19 -0.39,-0.49 -1.19,-1.27 -0.81,-0.77 -2,-1.9 -3.51,-3.23 -4.55,-3.82 -9.41,-7.43 -14.37,-10.71 -16.54,-10.74 -34.45,-19.38 -53.19,-25.61 -18.66,-5.98 -37.92,-10.96 -57.23,-14.56l-17.56 -3.51c-2.18,-0.43 -4.44,-0.76 -6.69,-0.93l0 0z"/>
    <path class="fil8" d="M221.89 1273.12c0.53,0 3.51,-18.3 7.03,-41.03 3.51,-22.73 5.62,-41.24 5.09,-41.31 -0.53,-0.07 -3.51,18.3 -7.03,41.03 -3.51,22.73 -5.44,41.24 -5.09,41.31z"/>
    <path class="fil8" d="M129.65 1239.64c2.98,-3.1 5.79,-6.41 8.33,-9.87 4.99,-6.22 11.87,-14.75 19.71,-24.06 7.83,-9.31 15.03,-17.56 20.3,-23.53 3.01,-3.11 5.84,-6.44 8.43,-9.9 -0.98,0.64 -1.89,1.41 -2.67,2.28 -1.62,1.51 -3.86,3.83 -6.64,6.71 -5.51,5.76 -12.93,14.05 -20.76,23.22 -7.83,9.17 -14.58,18.02 -19.28,24.59 -2.39,3.23 -4.25,5.87 -5.48,7.69 -0.77,0.86 -1.42,1.84 -1.93,2.88l-0 0z"/>
    <polygon class="fil9" points="373.75,1325.18 373.75,1370.73 362.33,1370.73 321.83,1498.59 232.01,1498.59 192.77,1372 177.56,1370.73 177.56,1325.18 "/>
    <g>
     <polygon class="fil11" points="373.75,1325.18 373.75,1370.73 362.33,1370.73 321.83,1498.59 232.01,1498.59 192.77,1372 177.56,1370.73 177.56,1325.18 "/>
    </g>
    <path class="fil8" d="M185.15 1372c0,0.53 39.69,0.95 88.59,0.95 48.9,0 88.59,-0.42 88.59,-0.95 0,-0.53 -39.66,-0.95 -88.59,-0.95 -48.93,0 -88.59,0.42 -88.59,0.95z"/>
    <path class="fil8" d="M120.55 1078.87c1.87,0.67 3.81,1.2 5.76,1.55l15.77 3.83c13.28,3.27 31.61,8.26 51.32,14.93 19.71,6.67 37.37,13.7 49.95,19.11l14.86 6.5c1.78,0.89 3.62,1.65 5.51,2.25 -1.64,-1.11 -3.39,-2.1 -5.2,-2.92 -3.51,-1.76 -8.4,-4.18 -14.65,-7.03 -16.27,-7.37 -32.95,-14.01 -49.83,-19.68 -16.91,-5.68 -34.26,-10.6 -51.68,-14.45 -6.71,-1.47 -12.15,-2.56 -15.95,-3.2 -1.91,-0.48 -3.88,-0.78 -5.87,-0.89l-0 0z"/>
    <path class="fil10" d="M214.97 1442.99c0,0.53 27.85,0.95 62.17,0.95 34.32,0 62.14,-0.42 62.14,-0.95 0,-0.53 -27.82,-0.95 -62.14,-0.95 -34.32,0 -62.17,0.42 -62.17,0.95z"/>
    <path class="fil10" d="M211.5 1432.42c0,0.53 29.51,0.95 65.86,0.95 36.36,0 65.86,-0.42 65.86,-0.95 0,-0.53 -29.47,-0.95 -65.86,-0.95 -36.39,0 -65.86,0.42 -65.86,0.95z"/>
   </g>
   <g id="freepik--Floor--inject-54">
    <path class="fil8" d="M2408.02 1499.3c0,0.53 -535.47,0.95 -1195.84,0.95 -660.38,0 -1195.98,-0.42 -1195.98,-0.95 0,-0.53 535.54,-0.91 1195.91,-0.91 660.38,0 1195.91,0.42 1195.91,0.91z"/>
   </g>
   <g id="freepik--speech-bubbles--inject-54">
    <polygon class="fil10" points="2079.87,163.27 1138.52,163.27 1138.52,746.22 1930.97,746.22 1980.04,859.08 2023.52,746.22 2079.87,746.22 "/>
    <path class="fil8" d="M2079.73 163.23c0,5.66 0.25,224.81 0.7,583.1l0 0.7 -56.9 0 0.67 -0.46c-13.59,35.37 -28.28,73.48 -43.45,112.86l-0.67 1.79 -0.77 -1.76c-15.39,-35.34 -32,-73.59 -49.18,-112.86l0.74 0.49 -716.58 0 -76.68 0 0 -0.91c0,-207.77 0,-404.94 0,-583.1l0 -0.81 0.84 0 941.39 0.81 -941.39 0.84 0.84 -0.84c0,178.06 0,375.22 0,583.1l-0.91 -0.91 75.8 0 716.58 0 0.53 0 0.21 0.49 49.18 112.9 -1.44 0 43.63 -112.76 0.18 -0.49 56.69 0 -0.7 0.7c0.7,-358.22 0.7,-577.23 0.7,-582.89z"/>
    <path class="fil8" d="M2079.37 220.14c0,0.7 -210.34,1.3 -469.71,1.3 -259.37,0 -469.74,-0.6 -469.74,-1.3 0,-0.7 210.3,-1.12 469.74,-1.12 259.44,0 469.71,0.42 469.71,1.12z"/>
    <path class="fil8" d="M1188.53 194.42c0,4.27 -3.46,7.73 -7.73,7.73 -4.27,0 -7.73,-3.46 -7.73,-7.73 0,-4.27 3.46,-7.73 7.73,-7.73 0.01,0 0.02,0 0.03,0 4.25,0.02 7.69,3.47 7.69,7.73 0,0 0,0 0,0l-0 0z"/>
    <path class="fil8" d="M1216.46 194.42c0,4.27 -3.46,7.73 -7.73,7.73 -4.27,0 -7.73,-3.46 -7.73,-7.73 0,-4.27 3.46,-7.73 7.73,-7.73 0.01,0 0.02,0 0.03,0 4.25,0.02 7.69,3.47 7.69,7.73 0,0 0,0 0,0l-0 0z"/>
    <path class="fil8" d="M1244.39 194.42c0,4.27 -3.46,7.73 -7.73,7.73 -4.27,0 -7.73,-3.46 -7.73,-7.73 0,-4.27 3.46,-7.73 7.73,-7.73 4.27,0 7.73,3.46 7.73,7.73z"/>
    <polygon class="fil8" points="1241.19,324.39 1218.85,333.03 1241.19,341.64 1241.19,346.87 1213.09,335.74 1213.09,330.36 1241.19,319.19 "/>
    <polygon class="fil8" points="1264.44,302.09 1269.92,302.09 1249.13,361.38 1243.72,361.38 "/>
    <polygon class="fil8" points="1299.92,330.36 1299.92,335.77 1271.82,346.91 1271.82,341.67 1294.23,333.07 1271.82,324.39 1271.82,319.16 "/>
    <path class="fil8" d="M1307.16 351.12c0,-0.02 0,-0.05 0,-0.07 0,-2.33 1.89,-4.22 4.22,-4.22 0.02,0 0.05,0 0.07,0 0.01,0 0.03,0 0.04,0 2.29,0 4.14,1.86 4.14,4.14 0,0.05 -0,0.09 -0,0.14 0,0.05 0,0.09 0,0.14 0,2.32 -1.87,4.2 -4.18,4.22 0,0 0,0 0,0 -2.37,0 -4.29,-1.92 -4.29,-4.29 0,-0.02 0,-0.05 0,-0.07z"/>
    <path class="fil8" d="M1321.49 351.12c0,-0.03 -0,-0.07 -0,-0.11 0,-2.31 1.87,-4.18 4.18,-4.18 0.04,0 0.07,0 0.11,0 0,0 0,0 0,0 2.29,0 4.14,1.86 4.14,4.14 0,0.05 -0,0.09 -0,0.14 0,0.05 0,0.09 0,0.14 0,2.3 -1.85,4.18 -4.15,4.22 -0.01,0 -0.02,0 -0.04,0 -2.35,0 -4.25,-1.9 -4.25,-4.25 0,-0.03 0,-0.07 0,-0.1l-0 -0z"/>
    <path class="fil8" d="M1335.79 351.12c-0,-0.03 -0,-0.07 -0,-0.11 0,-2.31 1.87,-4.18 4.18,-4.18 0.04,0 0.07,0 0.11,0 0,0 0,0 0,0 2.29,0 4.14,1.86 4.14,4.14 0,0.05 -0,0.09 -0,0.14 0,0.05 0,0.09 0,0.14 0,2.3 -1.85,4.18 -4.15,4.22 -0.01,0 -0.03,0 -0.04,0 -2.35,0 -4.25,-1.9 -4.25,-4.25 0,-0.03 0,-0.07 0,-0.1l0 -0z"/>
    <path class="fil7" d="M1835.6 407.68c0,0.7 -139.13,1.27 -310.76,1.27 -171.63,0 -310.8,-0.56 -310.8,-1.27 0,-0.7 139.13,-1.3 310.8,-1.3 171.66,0 310.76,0.56 310.76,1.3z"/>
    <path class="fil8" d="M1937.11 409.5c0,0.7 -13.35,1.3 -29.86,1.3 -16.51,0 -29.86,-0.6 -29.86,-1.3 0,-0.7 13.38,-1.3 29.86,-1.3 16.47,0 29.86,0.49 29.86,1.3z"/>
    <path class="fil8" d="M2024.4 409.5c0,0.7 -14.61,1.3 -32.6,1.3 -17.98,0 -32.63,-0.6 -32.63,-1.3 0,-0.7 14.61,-1.3 32.63,-1.3 18.02,0 32.6,0.49 32.6,1.3z"/>
    <path class="fil7" d="M1609.84 460.05c0,0.7 -88.45,1.27 -197.55,1.27 -109.1,0 -197.52,-0.56 -197.52,-1.27 0,-0.7 88.41,-1.3 197.52,-1.3 109.1,0 197.55,0.56 197.55,1.3z"/>
    <path class="fil7" d="M1607 655.46c0,0.7 -88.45,1.27 -197.52,1.27 -109.07,0 -197.55,-0.56 -197.55,-1.27 0,-0.7 88.45,-1.3 197.55,-1.3 109.1,0 197.52,0.6 197.52,1.3z"/>
    <path class="fil8" d="M1753.37 460.05c0,0.7 -24.06,1.27 -53.74,1.27 -29.68,0 -53.74,-0.56 -53.74,-1.27 0,-0.7 24.06,-1.3 53.74,-1.3 29.68,0 53.74,0.56 53.74,1.3z"/>
    <path class="fil8" d="M1752.24 655.46c0,0.7 -24.06,1.27 -53.74,1.27 -29.68,0 -53.74,-0.56 -53.74,-1.27 0,-0.7 24.06,-1.3 53.74,-1.3 29.68,0 53.74,0.6 53.74,1.3z"/>
    <path class="fil9" d="M1240.7 486.68c0,0.7 -5.97,1.3 -13.35,1.3 -7.38,0 -13.31,-0.6 -13.31,-1.3 0,-0.7 5.97,-1.27 13.31,-1.27 7.34,0 13.35,0.56 13.35,1.27z"/>
    <path class="fil8" d="M1332.55 487.24c0,0.7 -12.96,1.27 -28.94,1.27 -15.98,0 -28.94,-0.56 -28.94,-1.27 0,-0.7 12.96,-1.3 28.94,-1.3 15.98,0 28.94,0.6 28.94,1.3z"/>
    <path class="fil8" d="M1391.25 487.24c0,0.7 -11.1,1.27 -24.8,1.27 -13.7,0 -24.8,-0.56 -24.8,-1.27 0,-0.7 11.1,-1.3 24.8,-1.3 13.7,0 24.8,0.6 24.8,1.3z"/>
    <path class="fil8" d="M1465.79 487.24c0,0.7 -11.31,1.27 -25.26,1.27 -13.95,0 -25.29,-0.56 -25.29,-1.27 0,-0.7 11.31,-1.3 25.29,-1.3 13.98,0 25.26,0.6 25.26,1.3z"/>
    <path class="fil8" d="M1531.02 487.24c0,0.7 -10.29,1.27 -22.97,1.27 -12.68,0 -22.97,-0.56 -22.97,-1.27 0,-0.7 10.29,-1.3 22.97,-1.3 12.68,0 22.97,0.6 22.97,1.3z"/>
    <path class="fil8" d="M1746.94 487.24c0,0.7 -45.24,1.27 -101.06,1.27 -55.82,0 -101.09,-0.56 -101.09,-1.27 0,-0.7 45.24,-1.3 101.09,-1.3 55.85,0 101.06,0.6 101.06,1.3z"/>
    <path class="fil9" d="M1237.01 520.68c0,0.7 -5.13,1.3 -11.49,1.3 -6.36,0 -11.49,-0.6 -11.49,-1.3 0,-0.7 5.13,-1.3 11.49,-1.3 6.36,0 11.49,0.6 11.49,1.3z"/>
    <path class="fil9" d="M1237.92 555.59c0,0.7 -5.34,1.3 -11.94,1.3 -6.6,0 -11.94,-0.6 -11.94,-1.3 0,-0.7 5.34,-1.3 11.94,-1.3 6.6,0 11.94,0.6 11.94,1.3z"/>
    <path class="fil9" d="M1237.92 595.11c0,0.7 -5.34,1.27 -11.94,1.27 -6.6,0 -11.94,-0.56 -11.94,-1.27 0,-0.7 5.34,-1.3 11.94,-1.3 6.6,0 11.94,0.56 11.94,1.3z"/>
    <path class="fil8" d="M1455.67 593.25c0,0.74 -39.9,1.3 -89.12,1.3 -49.21,0 -89.12,-0.56 -89.12,-1.3 0,-0.74 39.9,-1.27 89.12,-1.27 49.21,0 89.12,0.56 89.12,1.27z"/>
    <path class="fil8" d="M1440.08 555.59c0,0.7 -38.08,1.3 -85.01,1.3 -46.93,0 -84.97,-0.6 -84.97,-1.3 0,-0.7 38.04,-1.3 84.97,-1.3 46.93,0 85.01,0.6 85.01,1.3z"/>
    <path class="fil8" d="M1850.77 518.85c0,0.7 -129.62,1.27 -289.41,1.27 -159.79,0 -289.44,-0.56 -289.44,-1.27 0,-0.7 129.55,-1.3 289.44,-1.3 159.9,0 289.41,0.56 289.41,1.3z"/>
    <polygon class="fil10" points="2137.68,401.67 2137.68,897.09 2060.65,961.34 2137.68,961.34 2145.27,961.34 2463.52,961.34 2463.52,401.67 "/>
    <path class="fil8" d="M2137.68 401.67c0,0 1.93,0 5.69,0l16.86 0 64.88 0 238.4 -0.35 0.7 0 0 0.7c0,149.53 0,344.83 0.21,559.67l0 0.91 -57.4 0 -346.38 0 -2.32 0 1.79 -1.51 77.07 -64.25 -0.32 0.63c0.18,-148.13 0.32,-272.05 0.42,-358.99 0,-43.38 0.18,-77.52 0.21,-100.85 0,-11.59 0,-20.48 0,-26.56 0,-2.95 0,-5.23 0,-6.78 0,-1.55 0,-2.25 0,-2.25 0,0 0,0.81 0,2.35 0,1.55 0,3.86 0,7.03 0,6.08 0,15.03 0,26.7 0,23.36 0,57.57 0.21,100.99 0,86.83 0.21,210.76 0.39,358.5l0 0.35 -0.28 0.25 -77 64.32 -0.56 -1.51 346.38 0 56.48 -0 -0.91 0.91c0,-214.83 0,-410.13 0.21,-559.67l0.7 0.67 -237.98 -0.35 -64.63 -0.91 -17 0 -5.83 0z"/>
    <path class="fil8" d="M2167.3 426.26c0,3.65 -2.96,6.6 -6.6,6.6 -3.65,0 -6.6,-2.96 -6.6,-6.6 0,-3.65 2.96,-6.6 6.6,-6.6 3.65,0 6.6,2.96 6.6,6.6z"/>
    <path class="fil8" d="M2191.18 426.26c0,3.65 -2.96,6.6 -6.6,6.6 -3.65,0 -6.6,-2.96 -6.6,-6.6 0,-3.65 2.96,-6.6 6.6,-6.6 3.65,0 6.6,2.96 6.6,6.6z"/>
    <path class="fil8" d="M2215.07 426.26c0,3.65 -2.96,6.6 -6.6,6.6 -3.65,0 -6.6,-2.96 -6.6,-6.6 0,-3.65 2.96,-6.6 6.6,-6.6 3.65,0 6.6,2.96 6.6,6.6z"/>
    <path class="fil9" d="M2373.94 578.95c0,0.6 -41.31,1.05 -92.24,1.05 -50.93,0 -92.24,-0.46 -92.24,-1.05 0,-0.6 41.27,-1.05 92.24,-1.05 50.97,0 92.24,0.46 92.24,1.05z"/>
    <path class="fil9" d="M2412.44 623.77c0,0.56 -50.27,1.05 -112.4,1.05 -62.14,0 -112.4,-0.49 -112.4,-1.05 0,-0.56 50.26,-1.05 112.4,-1.05 62.14,0 112.4,0.46 112.4,1.05z"/>
    <path class="fil9" d="M2421.57 790.97c0,0.6 -53.6,1.05 -119.71,1.05 -66.11,0 -119.71,-0.46 -119.71,-1.05 0,-0.6 53.6,-1.05 119.71,-1.05 66.11,0 119.71,0.49 119.71,1.05z"/>
    <path class="fil9" d="M2206.74 646.57c-3.75,0.7 -7.58,1.05 -11.4,1.05 -3.82,0 -7.65,-0.36 -11.4,-1.06 3.75,-0.69 7.58,-1.05 11.4,-1.05 3.82,0 7.65,0.36 11.4,1.06l-0 -0z"/>
    <path class="fil9" d="M2285.39 647.03c0,0.6 -11.1,1.05 -24.59,1.05 -13.49,0 -24.59,-0.46 -24.59,-1.05 8.21,-0.66 16.51,-1.05 24.77,-1.05 8.26,0 16.55,0.39 24.77,1.07l-0.36 -0.01z"/>
    <path class="fil9" d="M2335.69 647.03c0,0.6 -9.48,1.05 -21.08,1.05 -11.59,0 -21.25,-0.46 -21.25,-1.05 7.02,-0.69 14.16,-1.05 21.23,-1.05 7.07,0 14.22,0.37 21.23,1.05l-0.14 0.01z"/>
    <path class="fil9" d="M2203.62 675.66c-3.22,0.7 -6.53,1.05 -9.83,1.05 -3.31,0 -6.61,-0.36 -9.84,-1.05 3.23,-0.7 6.53,-1.05 9.84,-1.05 3.31,0 6.61,0.36 9.84,1.05l-0 0z"/>
    <path class="fil9" d="M2204.39 705.55c-3.35,0.7 -6.79,1.05 -10.22,1.05 -3.43,0 -6.87,-0.35 -10.23,-1.05 3.35,-0.72 6.79,-1.09 10.23,-1.09 3.43,0 6.87,0.37 10.22,1.09z"/>
    <path class="fil9" d="M2204.39 739.34c-3.35,0.7 -6.79,1.05 -10.22,1.05 -3.43,0 -6.87,-0.35 -10.23,-1.05 3.36,-0.7 6.79,-1.06 10.23,-1.06 3.43,0 6.87,0.35 10.23,1.05l-0 0z"/>
    <path class="fil9" d="M2390.73 737.76c0,0.6 -34.14,1.05 -76.26,1.05 -42.12,0 -76.26,-0.46 -76.26,-1.05 0,-0.6 34.14,-1.05 76.26,-1.05 42.12,0 76.26,0.49 76.26,1.05z"/>
    <path class="fil9" d="M2377.35 705.55c0,0.56 -32.56,1.05 -72.71,1.05 -40.15,0 -72.71,-0.49 -72.71,-1.05 0,-0.56 32.53,-1.09 72.71,-1.09 40.19,0 72.71,0.49 72.71,1.09z"/>
    <path class="fil9" d="M2219.28 835.62c-3.35,0.7 -6.79,1.05 -10.22,1.05 -3.43,0 -6.87,-0.35 -10.23,-1.05 3.36,-0.7 6.79,-1.06 10.23,-1.06 3.43,0 6.87,0.35 10.23,1.05l-0 0z"/>
    <path class="fil9" d="M2219.28 869.45c-3.35,0.7 -6.79,1.05 -10.22,1.05 -3.43,0 -6.87,-0.35 -10.23,-1.05 3.35,-0.72 6.79,-1.09 10.23,-1.09 3.43,0 6.87,0.37 10.22,1.09l0 0z"/>
    <path class="fil9" d="M2405.63 867.87c0,0.56 -34.14,1.05 -76.26,1.05 -42.12,0 -76.26,-0.49 -76.26,-1.05 0,-0.56 34.11,-1.05 76.26,-1.05 42.15,0 76.26,0.46 76.26,1.05z"/>
    <path class="fil9" d="M2392.35 835.62c0,0.6 -32.56,1.05 -72.71,1.05 -40.15,0 -72.75,-0.46 -72.75,-1.05 0,-0.6 32.56,-1.05 72.75,-1.05 40.18,0 72.71,0.46 72.71,1.05z"/>
    <path class="fil9" d="M2431.45 674.07c0,0.6 -44.33,1.05 -98.99,1.05 -54.66,0 -98.99,-0.46 -98.99,-1.05 0,-0.6 44.33,-1.05 98.99,-1.05 54.66,0 98.99,0.49 98.99,1.05z"/>
    <path class="fil8" d="M2460.46 452.18c0,0.56 -71.55,1.05 -159.79,1.05 -88.24,0 -159.79,-0.49 -159.79,-1.05 0,-0.56 71.52,-1.05 159.79,-1.05 88.27,0 159.79,0.46 159.79,1.05z"/>
    <path class="fil9" d="M2256.87 551.94c-11.16,0.66 -22.52,1.06 -33.75,1.06 -11.23,0 -22.6,-0.4 -33.76,-1.06 0,-0.6 15.1,-1.05 33.76,-1.05 18.65,0 33.76,0.46 33.76,1.06z"/>
    <path class="fil9" d="M2218.65 490.78c0,0.6 -7.03,1.05 -15.91,1.05 -8.89,0 -15.91,-0.46 -15.91,-1.05 5.26,-0.69 10.6,-1.05 15.91,-1.05 5.32,0 10.65,0.37 15.91,1.06l0 -0.01z"/>
   </g>
   <g id="freepik--Character--inject-54">
    <path class="fil9" d="M1936.66 1212.24l70.74 -69.94 -126.17 -216.06c-13.12,-15.02 -29.77,-26.61 -48.41,-33.68l-44.44 -16.9 -110.47 -20.27 -78.4 31.01c-17.93,7.04 -29.73,24.37 -29.73,43.64 0,1.85 0.11,3.7 0.33,5.54l20.51 172.68 12.08 224.81 284.98 -49.46 -28.66 -83.14 0.95 -129.69 76.68 141.46z"/>
    <path class="fil8" d="M1861.63 1194.89c0.67,0 0.84,-44.93 0.39,-100.32 -0.46,-55.39 -1.33,-100.32 -2,-100.32 -0.67,0 -0.84,44.93 -0.39,100.32 0.46,55.39 1.33,100.32 2,100.32z"/>
    <path class="fil9" d="M1851.19 1227.84l-172.12 -69.3c-13.89,-5.59 -23.42,-18.59 -24.59,-33.52l-12.58 -165.09c0,0 1.47,-70.25 -42.36,-73.77l-24.98 9.8c-32.28,17.29 -40.25,64.22 -35.79,100.47 6.22,51.5 8.82,124.38 15.81,169.1 5.73,36.57 27.68,65.48 62.45,78.16l212.09 45.91 22.06 -61.75z"/>
    <path class="fil8" d="M1644.34 985.12c0.26,1.23 0.44,2.49 0.53,3.76 0.28,2.7 0.67,6.32 1.12,10.89 0.88,9.66 2.11,23.29 3.51,40.04 1.4,16.76 3.16,37.09 5.09,59.4 0.46,5.59 0.95,11.31 1.44,17.18 0.34,5.89 1.08,11.79 2.21,17.57 1.19,5.89 4.18,11.3 8.54,15.45 4.73,4.13 10.11,7.47 15.91,9.87 47.46,20.55 91.33,37.52 122.94,49.42l37.73 14.05 10.26 3.76c1.21,0.38 2.39,0.88 3.51,1.48 -1.19,-0.25 -2.37,-0.6 -3.51,-1.02l-10.54 -3.51c-9.03,-2.99 -22.02,-7.48 -38.01,-13.21 -31.93,-11.56 -75.77,-28.1 -123.4,-48.86 -6.02,-2.52 -11.6,-6.01 -16.5,-10.32 -4.7,-4.46 -7.91,-10.27 -9.17,-16.62 -1.14,-5.92 -1.87,-11.97 -2.17,-17.98 -0.5,-5.86 -0.95,-11.58 -1.37,-17.18 -1.76,-22.34 -3.3,-42.47 -4.64,-59.47 -1.34,-17 -2.18,-30.38 -2.92,-40.08 -0.28,-4.57 -0.49,-8.22 -0.67,-10.92 -0.01,-0.34 -0.02,-0.7 -0.02,-1.04 0,-0.88 0.04,-1.77 0.12,-2.64l0 0z"/>
    <path class="fil8" d="M1545.81 1074.87c0.23,0.68 0.35,1.39 0.35,2.11 0,0.03 -0,0.07 -0,0.1 0,1.72 0.35,3.83 0.56,6.36 0.53,5.9 1.23,13.8 2.04,23.43 0.81,9.63 2.14,21.64 3.86,34.63 1.66,14.05 4.33,28.08 7.81,41.82 1.59,7.09 4.44,13.84 8.38,19.93 3.8,5.62 8.12,10.94 12.86,15.8 8.03,8.28 17.37,15.3 27.58,20.69 9.49,4.82 19.74,8.18 30.25,9.91 -0.38,0.04 -0.75,0.06 -1.13,0.06 -0.38,0 -0.75,-0.02 -1.12,-0.06 -2.14,-0.12 -4.29,-0.39 -6.39,-0.81 -7.82,-1.48 -15.43,-4.07 -22.52,-7.66 -10.47,-5.28 -20.06,-12.26 -28.31,-20.61 -4.89,-4.93 -9.32,-10.31 -13.21,-16.06 -4.11,-6.28 -7.09,-13.26 -8.78,-20.58 -3.46,-13.82 -6.08,-27.96 -7.66,-42.14 -1.58,-13.07 -2.63,-24.87 -3.51,-34.78 -0.88,-9.91 -1.09,-17.95 -1.3,-23.5 0,-2.56 0,-4.67 0,-6.43 0.01,-0.05 0,-0.09 0,-0.13 0,-0.71 0.08,-1.41 0.25,-2.1l-0 0z"/>
    <path class="fil8" d="M1619.32 1190.4c0.43,-3.24 1.5,-6.37 3.13,-9.2 7.14,-14.24 19.74,-25.01 34.92,-29.82 2.86,-1.09 5.9,-1.66 8.97,-1.66 0.19,0 0.39,0 0.58,0.01 0,0.39 -3.51,1.09 -8.99,3.2 -7.1,2.75 -13.72,6.68 -19.53,11.59 -5.78,4.98 -10.7,10.93 -14.5,17.56 -2.95,4.99 -4.32,8.43 -4.57,8.33z"/>
    <g>
     <path class="fil12" d="M1801.7 1208.17c-18.41,-10.54 -36.43,-18.41 -55.67,-27.15 -19.25,-8.75 -38.11,-19.99 -50.69,-36.95 -23.78,-32.04 -21.08,-78.26 -45.38,-109.88l4.74 63.75c1.47,19.49 -1.51,38.64 11.03,51.99 10.54,11.13 31.19,19.71 45.66,24.59 29.33,9.66 60.91,24.03 90.2,33.72m0.1 -0.07l0 0 0 0z"/>
    </g>
    <polygon class="fil11" points="1860.01,1006.4 1874.9,1098.29 1860.82,1072.27 "/>
    <path class="fil7" d="M1639.14 949.64c-1.04,0.22 -2.1,0.34 -3.16,0.34 -0.27,0 -0.54,-0.01 -0.81,-0.02l-10.89 0.28c-9.17,0.25 -21.81,0.7 -35.76,1.69 -13.95,0.98 -26.52,2.35 -35.65,3.51l-10.78 1.27c-1.11,0.19 -2.24,0.29 -3.37,0.29 -0.2,0 -0.41,-0.01 -0.6,-0.01 1.23,-0.51 2.54,-0.84 3.86,-0.98 2.53,-0.53 6.18,-1.16 10.54,-1.86 9.1,-1.4 21.71,-2.95 35.69,-3.97 13.98,-1.02 26.7,-1.27 35.9,-1.16 4.6,0 8.33,0.18 10.89,0.32 0.2,-0.01 0.42,-0.01 0.62,-0.01 1.18,0 2.36,0.11 3.52,0.33l0 0z"/>
    <path class="fil7" d="M1644.16 1037.67c0,0.49 -22.55,2.77 -50.41,5.06 -27.86,2.28 -50.55,3.79 -50.58,3.27 -0.03,-0.53 22.52,-2.77 50.41,-5.09 27.89,-2.32 50.58,-3.76 50.58,-3.23z"/>
    <path class="fil7" d="M1652.34 1130.08c-1.09,0.8 -2.27,1.49 -3.51,2.04 -2.35,1.23 -5.8,2.85 -10.19,4.67 -22.78,9.52 -47.09,14.99 -71.77,16.1 -4.74,0.21 -8.57,0.21 -11.21,0 -0.27,0.01 -0.56,0.02 -0.85,0.02 -1.08,0 -2.16,-0.12 -3.22,-0.34 1.29,-0.25 2.61,-0.39 3.93,-0.39 0.05,0 0.1,0 0.15,0 2.63,0 6.43,-0.32 11.13,-0.7 12.15,-0.85 24.3,-2.59 36.19,-5.12 11.88,-2.67 23.72,-6.23 35.12,-10.54 4.39,-1.69 7.94,-3.09 10.54,-4.11 1.16,-0.69 2.4,-1.23 3.68,-1.62l-0 0z"/>
    <path class="fil7" d="M1713.57 1177.5c-6.21,3.85 -11.98,8.47 -17.08,13.7 -4.65,5.64 -8.66,11.82 -11.9,18.37 0.23,-2.2 0.87,-4.33 1.89,-6.29 4.35,-9.8 11.75,-17.96 21.08,-23.25 1.81,-1.24 3.85,-2.1 6,-2.53l0 0z"/>
    <path class="fil7" d="M1775.85 1238.34c2.73,-12.74 9.14,-24.43 18.41,-33.58 0.42,0.35 -4.99,7.03 -10.05,16.33 -5.06,9.31 -7.83,17.43 -8.36,17.25z"/>
    <path class="fil7" d="M1677.7 898c-7.96,2.35 -16.14,4.15 -24.35,5.34 -8.05,1.75 -16.33,2.94 -24.58,3.51 7.94,-2.37 16.13,-4.18 24.34,-5.34 8.06,-1.74 16.33,-2.94 24.58,-3.5l0.01 -0.01z"/>
    <path class="fil7" d="M1842.55 905.52c-11.28,-0.44 -22.62,-1.48 -33.77,-3.11 -11.25,-1.02 -22.54,-2.67 -33.56,-4.89 11.27,0.42 22.59,1.46 33.78,3.06 11.24,1.04 22.49,2.71 33.55,4.93l0.01 0.01z"/>
    <path class="fil7" d="M1856.6 982.17c-0.35,0.05 -0.71,0.08 -1.07,0.08 -0.36,0 -0.72,-0.03 -1.07,-0.08l-6.18 0 -22.73 0c-19.18,0 -45.66,0 -74.93,0.88 -29.26,0.88 -55.71,1.97 -74.89,2.99l-22.69 1.19 -6.15 0.25c-0.36,0.05 -0.72,0.08 -1.09,0.08 -0.36,0 -0.73,-0.03 -1.09,-0.08 0.7,-0.17 1.42,-0.28 2.14,-0.32l6.15 -0.63c5.34,-0.49 13.07,-1.09 22.66,-1.76 19.14,-1.33 45.66,-2.74 74.93,-3.51 29.26,-0.77 55.78,-0.7 75,-0.35 9.59,0.18 17.35,0.39 22.69,0.63l6.18 0.28c0.72,0.05 1.44,0.17 2.14,0.35l0 0z"/>
    <path class="fil7" d="M1858.64 1079.29c0,0.49 -45.14,3.86 -100.88,7.55 -55.75,3.69 -100.99,6.22 -101.02,5.73 -0.03,-0.49 45.14,-3.9 100.88,-7.55 55.75,-3.65 100.99,-6.25 101.02,-5.73z"/>
    <path class="fil7" d="M1853.83 1164.82c-1.2,0.67 -2.48,1.21 -3.79,1.62 -2.49,0.95 -6.11,2.18 -10.54,3.51 -9.03,2.95 -21.64,6.64 -35.72,10.05 -14.09,3.41 -26.98,5.83 -36.36,7.27 -4.71,0.77 -8.5,1.3 -11.13,1.58 -1.16,0.19 -2.34,0.29 -3.51,0.29 -0.21,0 -0.42,-0.01 -0.63,-0.01 1.31,-0.48 2.66,-0.81 4.04,-0.98l10.99 -2.14c9.31,-1.79 22.13,-4.43 36.18,-7.8 14.05,-3.37 26.66,-6.85 35.76,-9.48l10.78 -3.13c1.27,-0.42 2.6,-0.68 3.94,-0.77l-0 0z"/>
    <path class="fil7" d="M1926.08 1009.78c-10.68,3.68 -21.76,6.87 -32.81,9.4 -10.89,3.15 -22.09,5.73 -33.26,7.68 10.73,-3.69 21.76,-6.86 32.8,-9.4 10.92,-3.15 22.1,-5.77 33.28,-7.67l-0.01 0z"/>
    <path class="fil7" d="M1891.62 944.13c-4.66,1.76 -9.55,2.96 -14.51,3.51 -4.79,1.16 -9.71,1.76 -14.64,1.76 -0.08,0 -0.17,0 -0.26,0 4.68,-1.74 9.58,-2.93 14.54,-3.52 4.78,-1.17 9.69,-1.75 14.61,-1.75 0.08,0 0.17,0 0.25,0l-0 0z"/>
    <path class="fil8" d="M1644.86 964.5c-0.35,0 -0.91,-5.83 -4.11,-14.65 -8.42,-23.41 -28.04,-41.04 -52.2,-46.93 -9.13,-2.25 -15.07,-2.14 -15.03,-2.49 0.9,-0.16 1.81,-0.24 2.72,-0.24 0.48,0 0.96,0.02 1.43,0.07 3.75,0.15 7.51,0.64 11.17,1.44 24.94,5.29 45.2,23.5 53.11,47.74 1.2,3.54 2.09,7.23 2.6,10.95 0.22,1.05 0.34,2.13 0.34,3.21 0,0.3 -0.01,0.61 -0.03,0.91l0 0z"/>
    <path class="fil8" d="M1850 917.68c2.6,10.53 4.71,21.31 6.08,32.09 2.01,10.67 3.47,21.59 4.23,32.44 -2.55,-10.57 -4.61,-21.37 -6.03,-32.16 -2.03,-10.68 -3.48,-21.53 -4.3,-32.38l0.01 0z"/>
    <path class="fil9" d="M2041.93 1435.4c0,0 132.36,36.6 137.66,38.64 7.97,2.81 6.64,32 -5.76,31.61 -5.87,-0.21 -101.66,3.51 -113.77,2.81 -12.12,-0.7 -48.61,-15.14 -48.61,-15.14l30.49 -57.92z"/>
    <path class="fil8" d="M2097.08 1485.88c0.67,0 1.55,-7.03 5.83,-14.05 4.29,-7.02 9.76,-11.66 9.34,-12.19 -0.42,-0.53 -6.81,3.23 -11.28,11.06 -4.46,7.83 -4.46,15.24 -3.9,15.17z"/>
    <path class="fil8" d="M2083.24 1479.63c0.63,0 1.97,-6.15 5.51,-13.07 3.55,-6.92 7.69,-11.73 7.03,-12.19 -4.1,2.75 -7.3,6.65 -9.2,11.2 -3.34,7.45 -3.86,14.02 -3.34,14.05z"/>
    <path class="fil8" d="M2070.31 1476.18c0.67,0 0,-6.67 3.09,-14.05 3.09,-7.38 7.69,-11.87 7.24,-12.36 -0.46,-0.49 -6.22,3.51 -9.27,11.59 -3.06,8.08 -1.58,15.17 -1.05,14.82z"/>
    <path class="fil8" d="M2072.7 1458.97c0.99,-2.64 1.49,-5.45 1.49,-8.27 0,-0.53 -0.02,-1.08 -0.05,-1.61 -0.04,-3.63 -0.5,-7.26 -1.37,-10.78 -0.49,-2.09 -1.15,-4.15 -1.97,-6.15 -0.4,-1.25 -1.13,-2.36 -2.11,-3.23 -0.61,-0.47 -1.37,-0.73 -2.14,-0.73 -0.89,0 -1.74,0.34 -2.39,0.94 -1.04,0.99 -1.67,2.33 -1.79,3.76 -0.03,0.58 -0.05,1.17 -0.05,1.76 0,0.58 0.02,1.18 0.05,1.76 0.01,2.19 0.28,4.37 0.81,6.49 0.89,3.54 2.27,6.95 4.08,10.12 1.47,3 3.49,5.7 5.94,7.97 0.32,-0.21 -1.9,-3.3 -4.57,-8.71 -1.54,-3.12 -2.73,-6.44 -3.51,-9.84 -0.41,-1.98 -0.63,-4.01 -0.63,-6.04 0,-2.04 0,-4.57 1.23,-5.55 0.23,-0.23 0.55,-0.36 0.88,-0.36 0.33,0 0.64,0.13 0.88,0.35 0.67,0.63 1.17,1.43 1.44,2.32 0.8,1.9 1.47,3.85 2,5.83 0.93,3.37 1.52,6.84 1.76,10.32 0.24,6.12 -0.35,9.63 0.03,9.63z"/>
    <path class="fil8" d="M2072.7 1457.74c-2.28,-0.96 -4.73,-1.46 -7.2,-1.46 -0.46,0 -0.92,0.02 -1.37,0.05 -3.16,0 -6.32,0.4 -9.38,1.16 -1.89,0.4 -3.71,1.08 -5.41,2 -1.89,0.96 -3.08,2.9 -3.08,5.01 0,0.34 0.03,0.69 0.09,1.03 0.61,2.33 2.44,4.14 4.78,4.71 0.97,0.25 1.97,0.37 2.97,0.37 1,0 2,-0.12 2.97,-0.37 3.13,-0.81 6.07,-2.26 8.61,-4.25 2.39,-1.64 4.48,-3.7 6.15,-6.08 -2.45,1.41 -4.81,3.02 -7.03,4.78 -2.45,1.68 -5.21,2.87 -8.11,3.51 -0.8,0.2 -1.63,0.31 -2.46,0.31 -0.83,0 -1.66,-0.1 -2.46,-0.3 -1.55,-0.4 -2.78,-1.59 -3.23,-3.13 -0.03,-0.18 -0.04,-0.37 -0.04,-0.55 0,-1.36 0.78,-2.59 2.01,-3.18 1.52,-0.81 3.14,-1.44 4.81,-1.86 2.91,-0.81 5.91,-1.34 8.92,-1.55 4.95,-0.38 8.22,0.14 8.47,-0.21z"/>
    <path class="fil8" d="M2117.42 1487.32c0.63,0 0,-5.73 2.6,-11.94 2.6,-6.22 7.03,-9.87 6.46,-10.36 -0.56,-0.49 -5.73,2.6 -8.5,9.52 -2.77,6.92 -1.12,13 -0.56,12.79z"/>
    <path class="fil8" d="M2025.07 1493.43c1.61,0.97 3.32,1.77 5.09,2.39 4.8,1.85 9.74,3.39 14.75,4.57 14.73,3.18 29.78,4.85 44.86,4.85 1.87,0 3.81,-0.05 5.66,-0.08 19.85,-0.21 37.73,-1.09 50.69,-1.62l15.32 -0.81c1.89,-0.01 3.78,-0.22 5.63,-0.59 -1.35,-0.22 -2.72,-0.33 -4.09,-0.33 -0.52,0 -1.05,0.02 -1.56,0.05l-15.35 0 -50.62 0.98c-1.93,0.02 -3.96,0.08 -5.91,0.08 -14.85,0 -29.7,-1.4 -44.28,-4.13 -12.65,-2.51 -20.02,-5.77 -20.16,-5.35z"/>
    <path class="fil8" d="M2021.14 1496.45c0,0.28 3.79,-1.83 9.91,-4.5 6.17,-2.95 12.95,-4.48 19.79,-4.48 1.75,0 3.52,0.11 5.26,0.3 8.43,1.83 16.04,6.36 21.67,12.89 2.36,2.76 4.92,5.39 7.62,7.8 -1.75,-3.24 -3.95,-6.24 -6.5,-8.89 -2.58,-3.04 -5.54,-5.8 -8.75,-8.18 -4.03,-2.99 -8.74,-4.99 -13.7,-5.8 -1.67,-0.19 -3.37,-0.29 -5.06,-0.29 -7.27,0 -14.44,1.82 -20.83,5.28 -3.43,1.43 -6.62,3.42 -9.41,5.87l-0 0z"/>
    <path class="fil9" d="M1885.3 1404.67c0,0 -125.23,81.99 -129.76,85.39 -6.74,5.09 0.98,29.37 12.68,25.15 5.51,-1.97 110.61,-31.23 121.92,-35.62 11.31,-4.39 41.73,-29.19 41.73,-29.19l-46.58 -45.73z"/>
    <path class="fil8" d="M1848.1 1469.51c0.53,0 -1.69,-7.34 -8.4,-13.38 -6.71,-6.04 -14.05,-7.69 -14.05,-7.03 0,0.67 6.39,3.02 12.61,8.75 6.22,5.73 9.24,11.98 9.83,11.66z"/>
    <path class="fil8" d="M1859.34 1459.36c0.53,-0.18 -1.9,-6.5 -7.62,-12.29 -5.72,-5.8 -11.94,-8.43 -12.15,-7.9 -0.21,0.53 5.16,3.86 10.54,9.45 5.38,5.59 8.64,11.06 9.24,10.75z"/>
    <path class="fil8" d="M1870.62 1452.12c0.56,0 0,-7.03 -5.48,-13.77 -5.48,-6.74 -12.22,-8.75 -12.33,-8.18 -0.1,0.56 5.69,3.51 10.54,9.59 4.85,6.08 6.64,12.54 7.27,12.37z"/>
    <path class="fil8" d="M1863.21 1436.56c0.32,0 -1.4,-3.51 -2.85,-9.38 -0.82,-3.4 -1.32,-6.88 -1.47,-10.37 -0.06,-1.02 -0.09,-2.06 -0.09,-3.09 0,-1.03 0.03,-2.07 0.09,-3.09 0,-0.91 0.23,-1.82 0.67,-2.63 0.24,-0.35 0.64,-0.56 1.07,-0.56 0.23,0 0.45,0.06 0.65,0.18 1.44,0.56 2.18,2.99 2.85,4.92 0.62,1.93 1.03,3.92 1.23,5.94 0.12,1.31 0.18,2.65 0.18,3.98 0,2.19 -0.17,4.4 -0.5,6.56 -0.88,5.94 -2.04,9.55 -1.69,9.66 1.65,-2.89 2.75,-6.08 3.23,-9.38 0.59,-2.75 0.89,-5.56 0.89,-8.37 0,-0.84 -0.03,-1.68 -0.08,-2.51 -0.15,-2.18 -0.55,-4.34 -1.2,-6.43 -0.34,-1.11 -0.75,-2.21 -1.23,-3.26 -0.54,-1.32 -1.54,-2.39 -2.81,-3.02 -0.47,-0.22 -0.99,-0.34 -1.51,-0.34 -1.15,0 -2.22,0.56 -2.88,1.5 -0.67,1.13 -1.03,2.41 -1.05,3.72 -0.07,1.07 -0.11,2.15 -0.11,3.23 0,1.08 0.04,2.16 0.1,3.23 0.25,3.58 0.92,7.13 2,10.54 0.82,3.29 2.36,6.36 4.5,8.99l0 0z"/>
    <path class="fil8" d="M1862.93 1435.23c0.18,0.32 3.09,-1.16 8.15,-2.39 2.93,-0.71 5.94,-1.13 8.96,-1.23 0.43,-0.02 0.87,-0.04 1.31,-0.04 1.29,0 2.59,0.12 3.86,0.36 1.53,0.21 2.74,1.39 2.99,2.91 0,0.05 0,0.1 0,0.16 0,1.56 -0.8,3.01 -2.11,3.85 -1.41,0.87 -3.02,1.41 -4.67,1.55 -0.7,0.06 -1.42,0.1 -2.12,0.1 -2.25,0 -4.5,-0.33 -6.66,-0.97 -2.66,-0.98 -5.41,-1.81 -8.18,-2.43 2.3,1.78 4.93,3.11 7.72,3.9 2.57,0.98 5.3,1.48 8.05,1.48 0.47,0 0.93,-0.02 1.4,-0.04 2.01,-0.13 3.97,-0.75 5.69,-1.79 1.93,-1.21 3.1,-3.34 3.1,-5.62 0,-0.12 -0,-0.24 -0.01,-0.35 -0.3,-2.48 -2.21,-4.46 -4.67,-4.85 -1.25,-0.22 -2.53,-0.33 -3.8,-0.33 -0.65,0 -1.31,0.03 -1.96,0.09 -3.16,0.2 -6.29,0.79 -9.31,1.76 -2.84,0.69 -5.48,2.03 -7.73,3.9l0 0z"/>
    <path class="fil8" d="M1784.17 1510.64c0,0.21 2.11,-1.27 3.09,-4.85 0.27,-1.28 0.41,-2.58 0.41,-3.88 0,-3.43 -0.96,-6.8 -2.77,-9.72 -1.23,-2.18 -2.66,-4.29 -4.22,-6.25 -1.19,-1.71 -2.63,-3.26 -4.25,-4.57 -1.15,-0.93 -2.54,-1.52 -4.01,-1.68 -1.02,0 -1.58,0.21 -1.55,0.35 1.69,0.49 3.25,1.36 4.57,2.53 1.31,1.4 2.49,2.94 3.51,4.57 1.4,1.96 2.73,4.03 3.93,6.12 1.86,3.05 2.85,6.57 2.85,10.15 0,0.69 -0.04,1.38 -0.11,2.07 -0.39,1.74 -0.89,3.47 -1.47,5.16l-0 0z"/>
    <path class="fil8" d="M1829.13 1477.06c0.6,0 0.42,-6.32 -4.39,-12.01 -4.81,-5.69 -10.99,-7.03 -11.03,-6.46 -0.04,0.56 5.06,2.67 9.31,7.9 4.25,5.23 5.48,10.68 6.11,10.57z"/>
    <path class="fil8" d="M1918.99 1454.83c-1.94,1.1 -3.79,2.38 -5.52,3.79 -4.94,3.44 -10.12,6.6 -15.42,9.44 -7.92,4.18 -16.19,7.84 -24.6,10.92 -9.48,3.51 -20.13,6.85 -31.37,10.12 -22.55,6.5 -42.96,12.43 -57.68,16.86l-17.56 5.34c-2.15,0.56 -4.26,1.32 -6.28,2.26 2.21,-0.3 4.4,-0.8 6.53,-1.44l17.56 -4.64c14.82,-4.04 35.13,-9.73 57.82,-16.23 11.28,-3.27 21.95,-6.67 31.61,-10.36 8.45,-3.2 16.71,-7.07 24.59,-11.46 5.29,-2.98 10.43,-6.39 15.21,-10.15 1.85,-1.3 3.56,-2.8 5.1,-4.46z"/>
    <path class="fil8" d="M1923.62 1456.51c-3.33,-1.49 -6.9,-2.45 -10.54,-2.81 -2.68,-0.5 -5.4,-0.76 -8.12,-0.76 -6.27,0 -12.48,1.36 -18.18,3.96 -4.48,2.28 -8.35,5.61 -11.28,9.69 -2.35,3.27 -4.32,6.81 -5.87,10.54 -1.63,3.33 -2.83,6.89 -3.51,10.54 1.85,-3.11 3.49,-6.39 4.89,-9.73 2.99,-5.83 7.69,-14.37 16.72,-18.86 5.9,-2.61 12.29,-3.96 18.74,-3.96 2.14,0 4.29,0.15 6.41,0.45 6.6,0.39 10.68,1.3 10.75,0.95z"/>
    <path class="fil8" d="M2145.66 1199.6c0,0 37.55,13.49 37.73,55.64 0.28,80.79 -163.06,169.66 -163.06,169.66l-217.4 -144.02 -13.63 -5.51c0,0 293.45,-110.37 356.36,-75.77z"/>
    <path class="fil7" d="M1913.05 1353.59c2,-1.09 3.9,-2.38 5.66,-3.83 3.51,-2.56 8.64,-6.43 14.89,-11.24 12.43,-9.59 29.37,-23.25 47.6,-38.88 18.23,-15.63 34.25,-30.31 45.66,-41.17 5.69,-5.41 10.26,-9.87 13.35,-13 1.7,-1.52 3.26,-3.21 4.64,-5.02 -1.86,1.32 -3.61,2.79 -5.23,4.39l-13.8 12.47c-11.66,10.54 -27.85,25.05 -46.05,40.64 -18.2,15.6 -34.92,29.44 -47.1,39.38l-14.51 11.66c-1.81,1.39 -3.53,2.94 -5.09,4.6z"/>
    <path class="fil7" d="M2084.29 1229.74c-2.21,-0.35 -4.46,-0.52 -6.71,-0.52 -4.89,0 -9.76,0.84 -14.37,2.46 -11.35,3.3 -18.97,9.34 -18.62,9.76 0.35,0.42 8.29,-4.46 19.25,-7.66 10.96,-3.2 20.45,-3.34 20.45,-4.04z"/>
    <path class="fil7" d="M2065.68 1217.02c-5.18,1.82 -9.68,5.22 -12.86,9.69 -5.8,7.03 -7.34,14.58 -6.78,14.65 0.56,0.07 3.02,-6.53 8.5,-13.24 5.48,-6.71 11.34,-10.5 11.13,-11.1z"/>
    <path class="fil8" d="M2157.6 1472.57c0,-0.25 -2.6,-0.77 -5.62,1.69 -3.52,3.32 -5.74,7.8 -6.25,12.61 -0.2,1.25 -0.3,2.53 -0.3,3.8 0,3.54 0.78,7.04 2.26,10.25 1.55,3.3 3.23,4.88 3.51,4.71 0.28,-0.18 -0.88,-2.04 -1.97,-5.27 -0.98,-2.94 -1.49,-6.03 -1.49,-9.14 0,-1.3 0.09,-2.61 0.27,-3.89 0.49,-4.35 2.27,-8.45 5.12,-11.77 2.21,-2.53 4.5,-2.53 4.46,-2.98z"/>
    <path class="fil1" d="M2130.1 1084.98l-61.82 166.74c-3.49,9.41 -12.48,15.67 -22.53,15.67 -0.1,0 -0.21,-0 -0.31,-0l-340.44 -4.5 0 -25.85 126.45 4.6 53.6 -166.29c1.82,-5.61 7.06,-9.41 12.96,-9.41 0,0 0,0 0,0l219.61 0.63c7.41,0.13 13.35,6.18 13.35,13.59 0,1.64 -0.3,3.28 -0.88,4.81l0 0z"/>
    <path class="fil8" d="M2130.1 1084.98c0,0 0,0 0,-0.53 0.19,-0.5 0.33,-1.02 0.42,-1.55 0.25,-1.03 0.38,-2.09 0.38,-3.14 0,-1.06 -0.13,-2.12 -0.38,-3.14 -1.45,-5.61 -6.37,-9.64 -12.15,-9.98 -2.32,0 -4.88,0 -7.55,0l-91.61 0 -64.18 0 -36.08 0 -18.93 0c-0.49,-0.05 -0.98,-0.07 -1.47,-0.07 -2.67,0 -5.29,0.72 -7.59,2.07 -2.72,1.71 -4.73,4.34 -5.66,7.41l-53.46 166.01 0 0.39 -0.42 0 -126.45 -4.57 0.56 -0.56 0 25.85 -0.53 -0.53 214.06 2.85 93.05 1.3 21.46 0.28 10.54 0c0.48,0.03 0.97,0.04 1.46,0.04 2.87,0 5.72,-0.5 8.41,-1.48 6.2,-2.26 11.16,-7.03 13.66,-13.14 2.25,-6.04 4.46,-11.98 6.64,-17.74 17.25,-46.26 31.19,-83.64 40.82,-109.49 4.85,-12.86 8.57,-22.87 11.13,-29.68 2.56,-6.81 3.93,-10.29 3.93,-10.29 0,0 -1.23,3.51 -3.72,10.54l-11.03 29.43c-9.55,25.89 -23.36,63.23 -40.5,109.59l-6.6 17.81c-2.57,6.29 -7.68,11.23 -14.05,13.59 -2.85,1.04 -5.86,1.58 -8.9,1.58 -0.44,0 -0.89,-0.01 -1.32,-0.03l-10.54 0 -21.43 -0.28 -93.05 -1.16 -214.1 -2.77 -0.53 0 0 -26.98 0.56 0 126.45 4.64 -0.53 0.39 53.6 -165.97c0.98,-3.28 3.13,-6.1 6.04,-7.9 2.43,-1.43 5.2,-2.18 8.02,-2.18 0.51,0 1.02,0.03 1.53,0.07l18.93 0 36.08 0 64.18 0.28 91.61 0.42c2.67,0 5.2,0 7.59,0 5.91,0.39 10.89,4.55 12.33,10.29 0.26,1.03 0.39,2.1 0.39,3.16 0,1.06 -0.13,2.13 -0.39,3.16 -0.17,0.69 -0.41,1.36 -0.7,2l0 0z"/>
    <g>
     <path class="fil0" d="M1979.16 1147.96c2.14,-1.08 4.51,-1.65 6.91,-1.65 3.5,0 6.9,1.2 9.63,3.41 2.66,2.54 4.17,6.06 4.17,9.74 0,1.69 -0.32,3.37 -0.94,4.94 -2.18,5 -6.99,8.36 -12.43,8.67 -0.28,0.02 -0.56,0.03 -0.85,0.03 -5.53,0 -10.46,-3.49 -12.29,-8.7 -1.58,-5.44 0,-13.56 5.8,-16.44l0 0zm0 0l0 0 0 0z"/>
    </g>
    <path class="fil8" d="M2056.96 1433.86c0,0 -306.79,-196.5 -320.32,-204.23 -11.52,-6.57 -42.36,-25.54 -72.75,-17.14 -30.38,8.39 -57.64,35.72 -71.27,75.45 -7.76,22.76 -11.45,61.58 -13.17,90.7 -0.2,2.96 -0.3,5.96 -0.3,8.94 0,31.85 11.33,62.71 31.91,87 9.99,12.42 23.26,21.85 38.29,27.18 3.2,0.98 6.53,1.83 9.94,2.56 58.06,12.61 117.74,-13.45 150.38,-63.23l7.03 -10.89c0,0 200.92,73.77 204.05,72.75l36.21 -69.09z"/>
    <path class="fil7" d="M1752.49 1240.52c0,0 -0.28,0 -0.77,-0.46l-2.14 -1.47c-1.9,-1.3 -4.67,-3.2 -8.29,-5.55 -10.2,-6.69 -21.16,-12.28 -32.59,-16.55 -7.89,-2.89 -16.2,-4.63 -24.59,-5.15 -0.97,-0.04 -1.96,-0.07 -2.94,-0.07 -8.6,0 -17.14,1.59 -25.16,4.67 -9.93,3.82 -19.14,9.4 -27.12,16.43 -4.27,3.67 -8.31,7.64 -12.04,11.85 -3.77,4.33 -7.14,9.05 -9.98,14.04 -5.63,9.96 -10.09,20.61 -13.2,31.62 -2.92,10.71 -5.23,21.29 -7.41,31.26 -4.03,17.62 -6.43,35.74 -7.02,53.81 -0.02,1.12 -0.04,2.36 -0.04,3.5 0,11.04 0.95,22.11 2.81,32.98 0.67,4.29 1.44,7.55 1.9,9.8l0.49 2.56c0.02,0.16 0.03,0.3 0.03,0.45 0,0.15 -0.01,0.29 -0.03,0.44 -0.12,-0.27 -0.22,-0.55 -0.28,-0.84 0,-0.67 -0.42,-1.51 -0.67,-2.53 -0.6,-2.21 -1.47,-5.44 -2.25,-9.73 -2.31,-11.72 -3.52,-23.68 -3.52,-35.64 0,-0.31 0,-0.69 0,-1 0.45,-18.16 2.77,-36.34 6.78,-54.06 2.18,-10.05 4.43,-20.55 7.31,-31.4 3.18,-11.14 7.68,-21.93 13.38,-32.03 2.91,-5.12 6.34,-9.98 10.19,-14.44 3.8,-4.27 7.91,-8.31 12.26,-12.01 8.16,-7.13 17.55,-12.78 27.68,-16.65 8.1,-3.07 16.73,-4.65 25.4,-4.65 1.16,0 2.35,0.03 3.51,0.09 8.49,0.62 16.9,2.48 24.87,5.47 11.48,4.4 22.47,10.19 32.57,17.19 3.51,2.46 6.29,4.46 8.11,5.87l2.04 1.62c0.27,0.15 0.52,0.35 0.73,0.59l0 0z"/>
    <path class="fil7" d="M1677 1378.39c0.55,0.29 1.11,0.55 1.69,0.77l5.02 1.97 19.46 7.59 72.36 27.26c30.74,11.45 67.58,25.12 108.89,40.15 41.31,15.03 87.08,31.61 135.97,48.05l0.91 0.28 0.42 -0.81c7.66,-14.68 15.77,-30.14 23.99,-45.84l12.22 -23.43 0.49 -0.91 -0.88 -0.53 -234.26 -148.73 -70.25 -44.4 -19.11 -11.94 -4.99 -3.02c-0.55,-0.36 -1.13,-0.69 -1.72,-0.99 -0.59,-0.3 0.53,0.42 1.62,1.16l4.88 3.23 18.9 12.26 70.01 44.96 233.87 149.32 -0.39 -1.44c-3.86,7.41 -8.01,15.35 -12.22,23.36l-23.96 45.84 1.3 -0.56c-48.86,-16.51 -94.67,-32.91 -136.01,-47.81l-108.89 -39.66 -72.61 -26.63 -19.6 -7.03 -5.09 -1.79 -2.04 -0.7z"/>
    <g>
     <path class="fil9" d="M1692.88 726.48c-5.73,-10.31 -10.34,-21.3 -13.63,-32.63 -1.37,-4.78 -2.07,-9.74 -2.07,-14.72 0,-6.85 1.33,-13.65 3.91,-19.99 2.85,-6.29 7.34,-11.8 9.59,-18.34 3.06,-8.99 1.79,-19.6 7.38,-27.29 8.68,-12.05 27.29,-9.24 40.75,-15.53 10.54,-4.92 17.81,-15.49 28.8,-19.04 9.63,-3.09 20.13,0 29.4,3.86 9.27,3.86 18.37,9.03 28.38,10.33 3.58,0.18 7.2,0.3 10.8,0.3 3.6,0 7.22,-0.12 10.79,-0.31 0.39,-0.01 0.8,-0.02 1.19,-0.02 6.89,0 13.55,2.51 18.73,7.05 5.06,5.09 6.11,14.54 0.63,19.21 12.61,-2.14 24.59,10.54 24.31,23.22 -0.28,12.68 -9.8,24.03 -21.43,29.37 -11.63,5.34 -24.87,5.66 -37.62,4.64 -36.08,-2.81 -72.33,-16.51 -96.88,-43.07l-43.03 92.94zm0 0l0 0 0 0z"/>
    </g>
    <path class="fil13" d="M1700.64 681.35l-24.59 178.62c-0.33,2.42 -0.5,4.88 -0.5,7.33 0,27.79 21.26,50.98 48.94,53.4l0 0c1.54,0.13 3.09,0.2 4.64,0.2 26.83,0 49.54,-19.81 53.17,-46.39 1.83,-13.45 3.51,-24.59 3.51,-26.03 0,0 46.05,1.97 55.54,-42.57 4.57,-21.53 10.54,-66.74 15.17,-107.52 0.38,-3.25 0.57,-6.55 0.57,-9.83 0,-40.36 -28.46,-75.15 -68.01,-83.14l-4.32 -0.84c-47,-6.64 -78.86,29.61 -84.13,76.78z"/>
    <path class="fil14" d="M1786.25 847.77c-20.68,-3.71 -39.83,-13.52 -54.94,-28.11 -15.11,-14.59 7.34,34.92 52.69,39.8l2.25 -11.69z"/>
    <path class="fil8" d="M1836.72 736.35c-0.58,3.07 -3.26,5.29 -6.38,5.29 -0.36,0 -0.71,-0.03 -1.06,-0.09 -3.12,-0.38 -5.47,-3.03 -5.47,-6.17 0,-0.29 0.02,-0.57 0.06,-0.85 0.57,-3.08 3.26,-5.31 6.39,-5.31 0.34,0 0.69,0.03 1.02,0.08 3.14,0.36 5.51,3.02 5.51,6.18 0,0.29 -0.02,0.59 -0.06,0.88l-0 0z"/>
    <path class="fil8" d="M1842.76 718.37c-0.95,0.67 -5.06,-3.86 -11.94,-5.2 -6.88,-1.34 -12.58,1.05 -13.14,0 -0.28,-0.46 0.81,-1.79 3.51,-2.95 2.2,-0.95 4.59,-1.45 6.99,-1.45 1.19,0 2.38,0.12 3.55,0.36 3.57,0.69 6.84,2.52 9.31,5.2 1.79,2.11 2.21,3.76 1.72,4.04z"/>
    <path class="fil8" d="M1772.72 725.29c-0.58,3.07 -3.26,5.29 -6.38,5.29 -0.36,0 -0.71,-0.03 -1.06,-0.09 -3.12,-0.36 -5.47,-3 -5.47,-6.14 0,-0.29 0.02,-0.59 0.06,-0.88 0.57,-3.06 3.24,-5.29 6.36,-5.29 0.35,0 0.71,0.03 1.06,0.09 3.14,0.36 5.5,3.02 5.5,6.18 0,0.28 -0.02,0.57 -0.06,0.85l0 -0z"/>
    <path class="fil8" d="M1775.08 706.18c-0.98,0.67 -5.09,-3.86 -11.98,-5.23 -6.88,-1.37 -12.58,1.09 -13.14,0 -0.28,-0.46 0.81,-1.79 3.51,-2.95 2.2,-0.96 4.59,-1.45 6.99,-1.45 1.19,0 2.38,0.12 3.55,0.36 3.56,0.7 6.83,2.51 9.31,5.16 1.79,2.18 2.21,3.79 1.76,4.11z"/>
    <path class="fil8" d="M1789.79 762.06c1.64,-0.18 3.31,-0.27 4.96,-0.27 2.21,0 4.41,0.16 6.59,0.48 1.79,0.18 3.51,0 4.04,-0.98 0.28,-0.88 0.42,-1.79 0.42,-2.72 0,-0.92 -0.14,-1.84 -0.42,-2.72 -0.77,-4.57 -1.62,-9.34 -2.49,-14.36 -3.51,-20.44 -5.48,-37.09 -4.67,-37.23 0.81,-0.14 4.25,16.33 7.66,36.78 0.77,5.02 1.55,9.8 2.28,14.4 0.26,0.93 0.4,1.9 0.4,2.87 0,1.43 -0.29,2.85 -0.85,4.16 -0.8,1.18 -2.1,1.92 -3.51,2 -0.24,0.01 -0.49,0.02 -0.73,0.02 -0.78,0 -1.56,-0.08 -2.33,-0.23 -3.85,-0.24 -7.68,-0.98 -11.34,-2.18l-0 0z"/>
    <path class="fil8" d="M1768.65 762.77c1.12,0 -0.35,7.62 4.99,14.05 5.34,6.43 13.42,7.34 13.24,8.4 0,0.49 -2.04,1.09 -5.41,0.53 -4.38,-0.83 -8.34,-3.17 -11.17,-6.61 -2.31,-2.92 -3.58,-6.54 -3.58,-10.27 0,-0.5 0.02,-1 0.07,-1.5 0.31,-3.06 1.37,-4.74 1.86,-4.6z"/>
    <path class="fil9" d="M1782.21 679.62c-1.05,1.72 -7.73,-0.53 -15.98,-1.16 -8.26,-0.63 -15.17,0.25 -15.91,-1.62 -0.32,-0.91 1.16,-2.42 4.14,-3.72 3.17,-1.19 6.54,-1.81 9.93,-1.81 5.06,0 10.03,1.37 14.38,3.96 2.7,1.76 3.9,3.55 3.44,4.35z"/>
    <path class="fil9" d="M1844.38 698c-1.55,1.33 -5.94,-1.23 -11.59,-2.46 -5.66,-1.23 -10.54,-1.05 -11.52,-2.88 -0.32,-0.91 0.74,-2.32 3.16,-3.51 1.94,-0.73 3.99,-1.11 6.06,-1.11 4.74,0 9.28,1.97 12.52,5.43 1.55,2.14 1.9,3.9 1.37,4.53z"/>
    <path class="fil13" d="M1697.69 715.14c-0.7,-0.49 -28.87,-15.21 -34,15.53 -5.13,30.73 26.8,29.54 26.98,28.66 0.18,-0.88 7.03,-44.19 7.03,-44.19z"/>
    <path class="fil14" d="M1683.22 746.12c0,0 -0.6,0.28 -1.55,0.53 -0.43,0.11 -0.88,0.16 -1.32,0.16 -0.95,0 -1.89,-0.25 -2.71,-0.72 -3.06,-1.76 -4.92,-7.34 -4.14,-12.93 0.37,-2.64 1.32,-5.18 2.77,-7.41 0.91,-1.86 2.66,-3.17 4.71,-3.51 0.08,-0.01 0.16,-0.01 0.25,-0.01 1.24,0 2.33,0.82 2.67,2.01 0.28,0.95 0,1.51 0,1.58 0,0.07 0.74,-0.39 0.7,-1.69 -0.04,-0.79 -0.35,-1.55 -0.88,-2.14 -0.74,-0.78 -1.77,-1.24 -2.85,-1.26 -2.65,0.08 -5.07,1.53 -6.39,3.83 -1.75,2.44 -2.87,5.28 -3.27,8.26 -0.84,6.22 1.37,12.54 5.59,14.58 0.79,0.37 1.65,0.56 2.53,0.56 0.87,0 1.74,-0.19 2.53,-0.57 1.19,-0.53 1.48,-1.19 1.37,-1.26z"/>
    <g>
     <path class="fil9" d="M1865.46 656.9c-5.27,11.35 -32.39,15.74 -52.27,9.73 -18.3,-5.51 -24.98,-17.14 -36.6,-27.29 -7.38,-6.43 -7.38,-6.43 -19.42,-7.66 -9.73,-1.02 -17.56,8.68 -24.9,15.1 4.11,24.59 -6.74,48.61 -17.35,70.99 -0.89,2.61 -2.64,4.85 -4.95,6.36 -4.14,2.04 -9.13,-1.19 -11.63,-5.13 -2.94,-5.56 -4.48,-11.77 -4.48,-18.06 0,-1.17 0.06,-2.35 0.16,-3.51 0.09,-16.98 3.57,-33.84 10.21,-49.46 6.66,-15.73 17.85,-29.2 32.11,-38.63 12.95,-7.92 27.87,-12.12 43.05,-12.12 6.08,0 12.14,0.69 18.07,2.01 20.78,4.8 39.54,16.06 53.56,32.13 6.85,7.12 11.82,15.85 14.44,25.37l0 0.17zm0 0l0 0 0 0z"/>
    </g>
    <path class="fil8" d="M1803.07 731.16c0.28,0 0,-2.63 1.4,-7.03 1.79,-6.32 5.62,-11.88 10.89,-15.81 4.98,-3.68 11.02,-5.67 17.21,-5.67 3.4,0 6.78,0.6 9.98,1.77 5.31,1.94 9.93,5.44 13.24,10.01 3.58,4.88 5.51,10.79 5.51,16.84 0,6.06 -1.93,11.96 -5.51,16.84 -3.32,4.57 -7.94,8.07 -13.24,10.01 -3.18,1.17 -6.56,1.77 -9.96,1.77 -6.21,0 -12.25,-2 -17.23,-5.7 -5.27,-3.91 -9.1,-9.46 -10.89,-15.77 -1.23,-4.5 -1.12,-7.03 -1.4,-7.03 -0.04,0.32 -0.06,0.64 -0.06,0.97 0,0.32 0.02,0.65 0.06,0.97 0,0.05 0,0.1 0,0.15 0,1.78 0.21,3.56 0.63,5.3 1.48,6.73 5.29,12.74 10.74,16.96 5.33,4.07 11.85,6.28 18.55,6.28 9.78,0 18.98,-4.69 24.73,-12.6 3.94,-5.28 6.07,-11.69 6.07,-18.28 0,-6.59 -2.13,-13.01 -6.07,-18.28 -5.75,-7.85 -14.91,-12.49 -24.64,-12.49 -6.8,0 -13.41,2.27 -18.77,6.45 -5.45,4.2 -9.27,10.2 -10.75,16.93 -0.42,1.75 -0.63,3.55 -0.63,5.35 0,0.04 0,0.09 0,0.13 -0.01,0.15 -0.02,0.31 -0.02,0.46 0,0.49 0.05,0.99 0.16,1.47l0 0z"/>
    <path class="fil8" d="M1730.18 718.44c0.28,0 0,-2.63 1.4,-7.03 1.79,-6.32 5.62,-11.88 10.89,-15.81 4.97,-3.69 11.01,-5.68 17.2,-5.68 3.41,0 6.8,0.61 9.99,1.78 5.3,1.93 9.92,5.41 13.24,9.97 3.59,4.89 5.52,10.8 5.52,16.86 0,6.06 -1.93,11.97 -5.52,16.86 -3.31,4.58 -7.93,8.06 -13.24,9.97 -3.19,1.18 -6.58,1.78 -9.99,1.78 -6.19,0 -12.22,-2 -17.2,-5.68 -5.27,-3.92 -9.1,-9.48 -10.89,-15.81 -1.23,-4.46 -1.12,-7.03 -1.4,-7.03 -0.04,0.31 -0.06,0.63 -0.06,0.95 0,0.32 0.02,0.63 0.06,0.95 -0,0.04 -0,0.09 -0,0.13 0,1.8 0.21,3.6 0.63,5.35 1.48,6.74 5.29,12.75 10.75,16.96 5.37,4.17 11.98,6.44 18.78,6.44 9.74,0 18.9,-4.63 24.67,-12.47 3.93,-5.29 6.06,-11.71 6.06,-18.3 0,-6.59 -2.13,-13.01 -6.06,-18.3 -5.75,-7.85 -14.91,-12.49 -24.64,-12.49 -6.8,0 -13.41,2.27 -18.77,6.45 -5.45,4.22 -9.26,10.23 -10.75,16.97 -0.42,1.74 -0.63,3.55 -0.63,5.34 0,0.04 0,0.09 0,0.13 -0.05,0.33 -0.07,0.66 -0.07,0.99 0,0.23 0.01,0.47 0.04,0.7z"/>
    <path class="fil8" d="M1790.25 719.49c0.32,0.6 4.22,-1.23 8.75,0.18 4.53,1.4 6.81,5.02 7.41,4.67 0.6,-0.35 0,-1.3 -0.88,-2.85 -2.03,-2.93 -5.36,-4.68 -8.93,-4.68 -1.38,0 -2.75,0.27 -4.04,0.78 -1.72,0.7 -2.49,1.62 -2.32,1.9z"/>
    <path class="fil8" d="M1688.91 710.57c0,0.7 9.8,1.09 21.88,0.95 12.08,-0.14 21.85,-0.88 21.85,-1.58 0,-0.7 -9.8,-1.09 -21.88,-0.91 -12.08,0.18 -21.85,0.84 -21.85,1.55z"/>
    <path class="fil0" d="M1879.96 627.57c-0,0.99 -0.17,1.98 -0.49,2.92 -0.87,2.59 -2.47,4.89 -4.6,6.6 -3.15,2.58 -7,4.17 -11.06,4.53 -1.47,0.12 -2.96,0.18 -4.44,0.18 -3.42,0 -6.85,-0.32 -10.21,-0.95 -8.71,-1.29 -17.52,-3.06 -26.07,-5.23 -3.3,-0.88 -5.97,-1.62 -7.76,-2.18l-2.11 -0.67 -0.7 -0.28c0,0 0.28,0 0.74,0l2.14 0.53 7.8 1.93c6.6,1.58 15.81,3.51 26.06,5.06 3.41,0.63 6.87,0.96 10.33,0.96 1.38,0 2.78,-0.05 4.15,-0.16 3.94,-0.32 7.71,-1.8 10.82,-4.25 2.09,-1.63 3.7,-3.81 4.63,-6.29 0.63,-1.65 0.67,-2.74 0.77,-2.71z"/>
    <path class="fil0" d="M1886.78 634.52c-0.43,2.92 -1.32,5.78 -2.63,8.43 -5.91,12.66 -18.62,20.75 -32.59,20.75 -0.69,0 -1.39,-0.02 -2.08,-0.06 -2.94,-0.1 -5.87,-0.66 -8.64,-1.65 0.78,0.09 1.56,0.25 2.32,0.46 2.1,0.39 4.23,0.63 6.36,0.7 0.44,0.01 0.89,0.02 1.33,0.02 13.95,0 26.68,-7.94 32.81,-20.47 0.98,-1.9 1.78,-3.89 2.38,-5.94 0.2,-0.76 0.44,-1.51 0.74,-2.24l-0 -0z"/>
   </g>
  </g>
 </g>
</svg>
